<?xml version="1.0" standalone="yes"?>
<svg xmlns="http://www.w3.org/2000/svg" width="514" height="477">
<path style="fill:#ffffff; stroke:none;" d="M0 0L0 477L328 477C326.208 475.389 325.08 474.148 324 472C332.658 474.433 340.194 473.36 349 473L349 477L514 477L514 0L0 0z"/>
<path style="fill:#bebebe; stroke:none;" d="M34 9L35 10L34 9z"/>
<path style="fill:#a8a8a8; stroke:none;" d="M12 10L13 11L12 10z"/>
<path style="fill:#939393; stroke:none;" d="M37 10L38 11L37 10z"/>
<path style="fill:#878787; stroke:none;" d="M225 21L224 22L224 24C226.364 23.5175 226.518 23.364 227 21L225 21z"/>
<path style="fill:#a0a0a0; stroke:none;" d="M227 22C225.777 23.1952 225.58 23.3164 224 24C226.139 24.9524 227.976 24.5767 227 22z"/>
<path style="fill:#8c8c8c; stroke:none;" d="M257.997 25.5771C248.81 27.2712 252.392 39.3611 259.96 37.9136C267.089 36.55 266.175 24.0691 257.997 25.5771z"/>
<path style="fill:#bcbcbc; stroke:none;" d="M252 33L253 34L252 33z"/>
<path style="fill:#cbcbcb; stroke:none;" d="M253 34L254 35L253 34M260 38L261 39L260 38z"/>
<path style="fill:#b6b6b6; stroke:none;" d="M291.333 41.6667C291.278 41.7223 291.222 42.7777 291.667 42.3333C291.722 42.2778 291.778 41.2221 291.333 41.6667z"/>
<path style="fill:#7b7b7b; stroke:none;" d="M292 41C294.237 42.3334 296.518 43.1982 299 44C296.766 41.7038 295.198 41.2296 292 41z"/>
<path style="fill:#b4b4b4; stroke:none;" d="M297 41L298 42L297 41z"/>
<path style="fill:#898989; stroke:none;" d="M291 46C293.981 46.5225 295.289 46.3405 298 45C295.115 42.0874 292.409 41.7697 291 46z"/>
<path style="fill:#c6c6c6; stroke:none;" d="M298 42L299 43L298 42z"/>
<path style="fill:#bebebe; stroke:none;" d="M292 46L293 47L292 46z"/>
<path style="fill:#8b8b8b; stroke:none;" d="M217 81C214.358 81.1624 211.511 80.9944 209.044 82.1003C198.102 87.0056 208.431 105.218 215.543 92.9807C216.237 91.7874 216.572 90.3497 216.786 89.0015C217.15 86.7122 216.998 84.3096 217 82C218.695 82.2372 220.306 82.5294 222.025 82.3125C231.776 81.0818 230.692 71.9208 236.224 66.2238C240.094 62.238 248.986 58.1728 242.436 51.358C239.458 48.2599 234.662 50.9431 231 50.8704C226.313 50.7772 221.519 49.0501 217.279 52.0895C210.634 56.8517 215.065 74.4689 217 81z"/>
<path style="fill:#cdcdcd; stroke:none;" d="M220 50L221 51L220 50z"/>
<path style="fill:#b8b8b8; stroke:none;" d="M217 51L218 52L217 51z"/>
<path style="fill:#b7b7b7; stroke:none;" d="M220.573 54.8981C217.93 56.2142 218.127 59.516 217.915 62.0038C217.516 66.6995 216.845 80.8244 225.856 77.3773C231.421 75.2486 228.682 68.1439 228.184 64C227.926 61.8463 228.335 59.2956 227.397 57.2785C226.283 54.885 222.961 53.7087 220.573 54.8981z"/>
<path style="fill:#bdbdbd; stroke:none;" d="M244 55L245 56L244 55z"/>
<path style="fill:#b3b3b3; stroke:none;" d="M242.333 61.6667C242.278 61.7221 242.222 62.7779 242.667 62.3333C242.722 62.2776 242.778 61.2223 242.333 61.6667z"/>
<path style="fill:#898989; stroke:none;" d="M230 138C227.397 134.563 223.394 131.531 225 127C223.589 124.987 226.141 124.932 228 125C226.057 122.601 222.257 121.828 221.067 118.695C220.239 116.514 221.34 114.147 221.782 112C223.853 101.939 230.107 97.1767 235.821 89C238.561 85.0789 241.547 76.2915 246.184 74.4838C250.729 72.7123 253.379 77.8209 256.325 80.1474C258.887 82.1703 262.327 82.8145 264.566 85.2778C268.167 89.2394 267.958 96.9442 268 102C269.957 97.3356 267.274 85.8471 275.17 85.9167C277.095 85.9336 279.128 86.6059 281 87C283.577 78.2604 278.791 73.3575 273.374 67.0432C270.541 63.7404 267.803 60.5424 263.015 62.1914C258.9 63.6088 257.646 68.1289 253.896 69.8025C250.25 71.4295 245.97 68.9983 242.92 72.5139C237.882 78.3202 235.556 86.2892 229.946 91.9105C224.645 97.2213 221.298 101.331 217.692 107.91C216.302 110.448 214.26 112.945 214.417 116.01C214.641 120.406 218.897 121.721 220.823 125.129C223.813 130.421 223.125 135.789 230 138z"/>
<path style="fill:#bcbcbc; stroke:none;" d="M267 61L268 62L267 61z"/>
<path style="fill:#c2c2c2; stroke:none;" d="M269 62L270 63L269 62z"/>
<path style="fill:#b9b9b9; stroke:none;" d="M262 67C263.019 69.2287 264.22 70.983 265.644 72.99C266.677 74.4472 267.536 76.0566 268.63 77.4668C270.706 80.1451 276.702 82.4627 276.704 76.9807C276.706 70.0193 267.804 64.2522 262 67z"/>
<path style="fill:#c9c9c9; stroke:none;" d="M256 68L257 69L256 68z"/>
<path style="fill:#cbcbcb; stroke:none;" d="M233 69L234 70L233 69z"/>
<path style="fill:#d1d1d1; stroke:none;" d="M245 70L246 71L245 70z"/>
<path style="fill:#b6b6b6; stroke:none;" d="M251 70C252.506 70.683 253.315 70.8259 255 71C253.494 70.317 252.685 70.1741 251 70z"/>
<path style="fill:#ffffff; stroke:none;" d="M257.607 73.0463C254.05 75.6975 258.988 81.3762 262.393 78.9283C265.984 76.3463 261.107 70.4377 257.607 73.0463z"/>
<path style="fill:#b7b7b7; stroke:none;" d="M249 116L250 121C246.662 123.116 246.008 126.528 242 128C247.347 135.974 244.28 139.728 243 148L247 148C243.248 154.233 240.976 162.866 236 168C245.735 170.851 243.681 161.508 251 158C249.692 161.365 246.64 165.569 246.487 169.17C246.324 172.979 249.464 176.114 249.103 180C248.836 182.878 246.714 185.153 246.358 188C245.945 191.305 248.876 196.79 252.892 195.654C260.279 193.565 253.823 183.663 257.607 179.728C259.595 177.66 263.383 177.192 266 176.329C273.309 173.921 280.222 171.335 288 171C285.22 168.591 279.85 168.391 277.812 165.486C275.965 162.852 278.442 159.162 277.667 156.214C276.564 152.017 268.576 149.662 265 148C266.67 145.633 269.544 143.046 269.623 139.961C269.828 132.046 258.216 128.634 257.732 120C257.488 115.656 260.894 112.271 263.265 109C266.589 104.416 268.39 100.744 267.715 95C267.308 91.5424 267.192 87.099 264.566 84.5092C262.262 82.2365 258.795 81.5728 256.325 79.4467C253.289 76.8342 250.085 71.8061 245.329 74.2693C241.955 76.0172 240.512 80.9828 238.547 84C234.257 90.5873 227.235 96.203 223.803 103.17C221.528 107.788 217.531 120.036 224.29 122.417C227.497 123.547 230.115 121.085 233.039 120.261C238.406 118.747 243.696 117.911 249 116z"/>
<path style="fill:#c8c8c8; stroke:none;" d="M230 77L231 78L230 77z"/>
<path style="fill:#bebebe; stroke:none;" d="M264.333 77.6667C264.278 77.7223 264.222 78.7777 264.667 78.3333C264.722 78.2778 264.778 77.2221 264.333 77.6667z"/>
<path style="fill:#bbbbbb; stroke:none;" d="M229 79L230 80L229 79z"/>
<path style="fill:#c7c7c7; stroke:none;" d="M263 79L264 80L263 79z"/>
<path style="fill:#c3c3c3; stroke:none;" d="M206 83L207 84L206 83z"/>
<path style="fill:#bbbbbb; stroke:none;" d="M236 83L237 84L236 83z"/>
<path style="fill:#b6b6b6; stroke:none;" d="M207 91L211 92C212.182 89.5703 212.73 87.6874 213 85C209.487 86.0537 208.363 87.6319 207 91z"/>
<path style="fill:#bababa; stroke:none;" d="M272 85L273 86L272 85z"/>
<path style="fill:#cecece; stroke:none;" d="M275 85L276 86L275 85z"/>
<path style="fill:#c8c8c8; stroke:none;" d="M271 86L272 87L271 86z"/>
<path style="fill:#d0d0d0; stroke:none;" d="M281 86L282 87L281 86z"/>
<path style="fill:#c3c3c3; stroke:none;" d="M233 88L234 89L233 88z"/>
<path style="fill:#c5c5c5; stroke:none;" d="M204 92L205 93L204 92z"/>
<path style="fill:#848484; stroke:none;" d="M312 92C311.29 95.0575 311.331 96.2684 314 98L314 92L312 92z"/>
<path style="fill:#c4c4c4; stroke:none;" d="M215 93L216 94L215 93z"/>
<path style="fill:#d2d2d2; stroke:none;" d="M214 95L215 96L214 95z"/>
<path style="fill:#b8b8b8; stroke:none;" d="M269 96L270 97L269 96z"/>
<path style="fill:#bcbcbc; stroke:none;" d="M206.667 97.3333C206.222 97.7778 207.278 97.7222 207.333 97.6667C207.778 97.2224 206.722 97.2777 206.667 97.3333z"/>
<path style="fill:#d0d0d0; stroke:none;" d="M212 97L213 98L212 97z"/>
<path style="fill:#cbcbcb; stroke:none;" d="M216.333 109.667C216.278 109.722 216.222 110.778 216.667 110.333C216.722 110.278 216.778 109.222 216.333 109.667z"/>
<path style="fill:#b7b7b7; stroke:none;" d="M286 137C288.253 134.425 290.273 132.206 291.571 128.981C292.884 125.719 294.453 121.661 293.682 118.09C292.744 113.746 286.741 109.235 282.419 112.032C280.156 113.497 279.554 116.598 278.86 119C276.576 126.918 277.112 134.302 286 137z"/>
<path style="fill:#777777; stroke:none;" d="M291 114L292 115L291 114z"/>
<path style="fill:#8c8c8c; stroke:none;" d="M228 125C226.216 124.823 222.377 125.051 225 127C222.277 131.526 226.725 134.922 230 138C228.201 140.06 228.802 143.269 229.054 146C229.736 153.389 235.36 159.169 236 167L239 167C240.068 159.878 244.281 154.481 247 148L243 148C244.686 141.743 249.037 133.821 242 129C245.871 126.919 246.975 123.877 250 121L249 116C242.468 117.54 230.553 118.264 228 125z"/>
<path style="fill:#c9c9c9; stroke:none;" d="M214 119L215 120L214 119z"/>
<path style="fill:#e4e4e4; stroke:none;" d="M215.333 120.667C215.278 120.722 215.222 121.778 215.667 121.333C215.722 121.278 215.778 120.222 215.333 120.667z"/>
<path style="fill:#b8b8b8; stroke:none;" d="M216 121L217 122L216 121z"/>
<path style="fill:#a5a5a5; stroke:none;" d="M230.667 126.333C230.222 126.778 231.278 126.722 231.333 126.667C231.778 126.222 230.722 126.278 230.667 126.333z"/>
<path style="fill:#b5b5b5; stroke:none;" d="M230 127C232.127 130.875 234.909 130.97 237 127C234.498 126.598 232.511 126.641 230 127z"/>
<path style="fill:#898989; stroke:none;" d="M251 129L252 133L255 133L256 129C253.799 128.519 253.201 128.519 251 129z"/>
<path style="fill:#c4c4c4; stroke:none;" d="M287 134C287.98 135.783 287.908 135.594 290 136C288.777 134.805 288.58 134.684 287 134z"/>
<path style="fill:#d2d2d2; stroke:none;" d="M282.667 136.333C282.222 136.778 283.278 136.722 283.333 136.667C283.778 136.222 282.722 136.278 282.667 136.333z"/>
<path style="fill:#e6e6e6; stroke:none;" d="M282 140L286 140C284.571 142.444 284.652 143.361 287 145C286.942 142.216 286.648 139.709 286 137C283.868 137.776 283.229 138.13 282 140z"/>
<path style="fill:#ffffff; stroke:none;" d="M250 150C251.98 150.165 254.014 150.45 256 150.196C267.146 148.768 256.577 133.561 251.768 141.149C251.068 142.252 250.749 143.717 250.479 144.976C250.121 146.647 250.074 148.302 250 150z"/>
<path style="fill:#b8b8b8; stroke:none;" d="M288 138C286.246 144.176 288.84 146.799 295 147C294.159 142.373 292.509 139.617 288 138z"/>
<path style="fill:#cccccc; stroke:none;" d="M228.333 141.667C228.278 141.722 228.222 142.778 228.667 142.333C228.722 142.278 228.778 141.222 228.333 141.667z"/>
<path style="fill:#9c9c9c; stroke:none;" d="M228 143L228 147C228.71 145.24 228.71 144.759 228 143z"/>
<path style="fill:#d6d6d6; stroke:none;" d="M289 147C290.506 147.683 291.315 147.826 293 148C291.494 147.317 290.685 147.174 289 147z"/>
<path style="fill:#cecece; stroke:none;" d="M229 150L230 151L229 150z"/>
<path style="fill:#d3d3d3; stroke:none;" d="M251 150C252.248 150.685 252.548 150.749 254 151C252.752 150.315 252.452 150.251 251 150z"/>
<path style="fill:#8b8b8b; stroke:none;" d="M252 176C255.556 175.23 260.701 175.911 263.83 174.543C267.56 172.912 270.227 168.434 272 165C265.298 163.931 266.001 158.663 266 153C256.228 155.745 252.078 166.723 252 176z"/>
<path style="fill:#dedede; stroke:none;" d="M331 157L333 162C338.243 160.24 335.533 156.607 331 157z"/>
<path style="fill:#dddddd; stroke:none;" d="M148 243L148 241C146.319 239.776 144.74 238.733 143.579 236.941C140.089 231.549 145.932 222.96 152 222.546C156.934 222.21 161.982 228.291 161.092 232.985C160.398 236.642 157.45 239.631 156 243C159.398 245.53 162.98 248.619 163.772 253.015C165.312 261.557 159.063 270.385 169.976 274.335C171.807 274.998 173.098 275.042 175 275C177.212 280.96 183.609 286.582 183.836 293C184.073 299.68 176.873 306.452 175 313C180.334 318.561 171.956 324.377 175 329C173.032 330.681 171.35 331.938 169 333C167.766 330.245 166.45 328.018 166 325L168 326C168.164 322.807 170.307 318.237 169.292 315.228C166.558 307.123 157.713 316.027 156.265 320.001C154.711 324.263 155.928 327.938 158.096 331.715C159.369 333.932 161.46 336.226 160.864 338.985C160.164 342.228 156.937 343.846 154 344.527C149.805 345.5 145.935 344.074 141.996 346.192C134.753 350.087 131.019 358.929 122 357C118.687 359.471 115.686 357.712 112 358.948C108.227 360.212 105.405 363.662 102 365.638C98.9313 367.419 94.0956 368.387 92.0278 371.474C89.5384 375.19 90.0886 382.581 89 387L87 386C86.0143 387.479 86 387.203 86 389C81.9781 384.358 82.0242 379.293 79.0008 374.34C74.4839 366.94 66.4485 364.646 66 355C61.991 357.193 59.9247 360.932 58 365L66 367C63.8875 370.143 63.5527 371.488 65 375L67 375C71.0147 371.464 74.7773 374.909 73.6636 379.988C72.9696 383.154 70.6345 384.587 68 386L67 383L63 384C62.159 381.533 61.2222 379.301 60 377C57.6095 379.588 56.5448 382.096 53 383L52 389C50.5768 384.804 49.5917 380.394 49 376C47.1218 376.176 45.8006 376.438 44 377C45.3365 384.199 45.49 391.7 46.0856 399C46.353 402.276 47.5027 405.704 46.9869 409C46.368 412.955 40.7124 416.681 41.7515 420.671C42.7893 424.655 50.7695 426.509 54.0394 428.174C61.6122 432.03 65.2343 439.419 71.6651 444.393C73.7632 446.016 77.0082 446.195 78.4012 443.566C79.8578 440.818 81.5622 434.116 80.5478 431.17C78.6759 425.732 72.8815 421.697 71.8279 415.996C71.2316 412.77 72.9707 410.055 73.6103 407C74.2885 403.761 74 400.291 74 397L78 397C79.4334 405.066 84.9047 411.955 86.277 420C87.0052 424.269 85.1013 428.672 85 433C93.9539 433.565 100.175 425.388 109 426.2C117.394 426.972 122.749 432.69 129.576 436.762C134.593 439.754 141.313 441.755 147 442.985C150.692 443.784 154.481 444.477 158 442.682C162.245 440.517 165.043 436 170 435.244C174.891 434.498 179.328 437.651 184 438.532C189.983 439.661 196.049 438.752 202 438C201.973 441.531 200.718 446.638 202.897 449.697C204.875 452.472 208.889 452.818 212 452.961C219.613 453.309 225.559 452.687 230.096 445.985C234.275 439.813 229.286 429.39 238 428C234.496 424.85 230.631 424.108 226 424C226.13 429.529 229.817 433.625 230.017 438.845C230.362 447.846 220.023 450.98 213 451C214.442 448.271 216.168 445.983 217 443C215.197 443.195 213.7 443.408 211.99 444.055C209.292 445.076 203.12 446.077 207.373 441.262C209.832 438.476 214.145 438.16 216.164 434.867C220.996 426.984 209.193 427.115 205 429.184C202.273 430.53 199.898 432.047 197 433C202.744 423.967 212.711 414.369 222 409L222 407C214.642 404.073 217.887 401.161 217 395L204 397C206.976 394.005 208.654 390.993 210 387C206.962 386.119 203.811 385.357 201.259 383.387C199.182 381.784 197.239 378.087 194.209 378.306C191.662 378.491 190.85 381.955 189.611 383.679C188.058 385.841 185.441 387.424 184.682 390.093C182.629 397.316 192.355 405.675 196 411C181.39 413.075 175.547 401.385 164 396C167.161 391.843 170.055 384.292 169.783 379C169.425 372.022 166.791 368.731 170 362C171.478 362.986 171.203 363 173 363C177.651 358.364 182.469 359.043 183 366C180.337 366.337 175.892 366.241 173.742 368.024C170.444 370.758 172.304 376.932 176.059 378.164C181.899 380.081 186.324 373.203 192 373.294C198.914 373.405 203.729 379.34 211 378.906C219.701 378.386 226.762 373.43 235 371.529C239.844 370.411 245.441 371.242 249.961 368.825C252.825 367.293 254.56 364.451 257.09 362.498C261.007 359.475 267.092 358.067 272 358.263C282.884 358.697 285.764 367.685 293.093 373.57C296.495 376.301 300.798 376.817 305 377C303.402 378.481 302.892 379.061 302 381C312.71 380.771 317.524 374.408 318 364C316.203 364 316.479 364.014 315 365C315.265 360.173 319.141 353.377 323 360C328.048 359.815 336.141 366.931 332.928 372.606C331.31 375.465 324.322 376.007 324.921 380C325.379 383.054 329.528 384.147 332 384.76C339.371 386.588 344.986 384.279 351 380C350.355 387.458 367.525 393.169 373.851 390.397C379.469 387.935 374.548 382.898 370.995 381.684C368.013 380.664 364.864 380.215 362.039 378.737C358.047 376.648 356.567 373.909 352 376C353.776 369.689 363.972 360.732 370.91 360.535C376.255 360.383 382.512 364.26 388 365C386.521 365.986 386.797 366 385 366C388.995 372.705 391.59 379.592 394 387C395.314 386.232 395.232 386.314 396 385C397.604 389.149 397.759 391.162 396 395L400 395C395.323 396.334 392.107 395.576 390 391C388.604 391.661 388.186 391.964 387 393L387 391C374.956 400.658 362.859 390.854 350 389.494C344.528 388.915 339.71 393.561 334.424 392.883C331.026 392.448 328.118 389.634 325 388.367C320.147 386.396 313.466 387.716 309.379 390.97C302.278 396.622 304.952 401.632 303.658 409C302.899 413.324 299.806 417.969 298 422C301.585 423.469 305.6 423.536 308.995 425.424C316.436 429.56 322.168 436.51 330 440C331.416 438.158 333.662 436.204 334.297 433.909C336.647 425.41 324.872 422.596 324.463 415.039C324.293 411.896 326.586 410.208 327.951 407.676C329.621 404.579 329.861 401.307 329 398L333 396C334.341 399.904 336.934 402.958 338 407C338.685 405.752 338.749 405.452 339 404C341.351 410.132 344.987 416.707 346.586 423C347.743 427.554 347.229 432.396 348 437C353.258 434.7 361.196 425.689 367.039 426.424C374.583 427.373 380.738 436.599 386.576 440.711C390.548 443.51 398.218 443.98 403 443.726C416.134 443.028 421.832 428.511 436 430C436.885 435.594 441.462 438.291 446.961 435.99C451.392 434.135 453.328 429.633 456.515 426.375C462.185 420.578 469.559 416.081 474.397 409.424C476.564 406.441 476.704 401.131 473.682 398.604C470.263 395.745 464.061 397.916 460 398C461.847 390.739 465.92 387.085 464 379C461.101 378.932 460.006 378.081 458 376L457 384C455.326 380.684 454.635 376.15 452.182 373.323C450.94 371.891 448.506 370.74 447.066 372.623C445.189 375.078 446.764 381.754 446 385C444.791 381.521 443.813 378.232 442 375C441.126 377.052 441.047 378.747 441 381C438.887 380.262 438.293 380.192 438 378C435.155 378.994 433.392 381.168 431 383C430.883 380.27 430.501 377.686 430 375C428.792 377.873 429.047 380.979 428.215 384C426.91 388.736 425.003 393.155 424 398C422.183 391.375 426.65 386.499 426.867 380C427.079 373.643 424.054 367.49 424 361C418.427 371.483 430.223 389.355 417 397C417.781 393.687 417.942 391.276 417 388C424.743 383.164 421.513 365 418 358C416.604 358.661 416.186 358.964 415 360C414.081 357.994 413.248 355.094 411.466 353.66C406.606 349.751 406.616 358.582 406.845 360.996C407.231 365.057 406.953 369.072 408.196 373.004C410.164 379.225 413.691 384.338 414 391L406 393L408 396L403 397C404.478 396.014 404.203 396 406 396C402.28 385.267 392.999 375.332 391.344 364C390.794 360.234 392.381 356.657 393 353L386 362L386 357C378.988 358.111 372.086 355.059 365 355C364.611 351.559 363.288 349.785 361.633 346.83C359.813 343.577 361.06 338.5 358.397 335.894C352.445 330.069 339.177 337.305 332.015 334.535C322.474 330.844 322.438 319.811 319.107 312.184C318.122 309.928 316.005 308.706 314.74 306.675C313.068 303.992 311.821 297.233 312.144 294.09C312.783 287.872 319.541 282.763 325.001 281.274C327.997 280.457 332.128 280.344 334.566 278.258C337.1 276.092 337.25 272.035 338 269C335.895 264.812 339.66 262.186 343.015 259.93C345.201 258.461 347.389 256.89 350 256.303C356.085 254.937 362.038 257.148 366 251L368 252C370.858 248.872 378.002 246.661 379.317 242.62C382.028 234.293 370.364 227.06 367.303 220.91C365.049 216.381 366.386 212.581 361.556 209.493C354.886 205.228 344.995 206.494 339.055 201.682C336.517 199.626 335.475 196.632 333.316 194.317C331.119 191.961 327.691 191.92 325.394 189.683C322.926 187.281 322.057 183.723 319.725 181.184C312.122 172.905 301.946 169.854 291 170.129C282.413 170.344 274.027 173.29 266 175.996C263.354 176.888 258.831 177.383 257.029 179.728C254.832 182.585 257.145 186.785 256.477 189.998C255.864 192.944 253.277 196.155 250.055 194.364C243.326 190.624 249.101 185.048 249.471 180C249.761 176.044 246.85 172.854 246.719 169.001C246.583 164.995 249.752 161.638 251 158C245.385 159.813 243.958 173.072 236.61 166.842C235.746 166.109 235.477 164.946 235 164C232.58 164.371 230.387 164.823 228.208 163.361C224.983 161.198 223.685 156.814 219 157.988C215.575 158.846 213.048 161.804 210.486 164.025C204.643 169.09 196.69 178.256 189 180.153C182.511 181.753 182.019 174.973 176.892 173.613C169.233 171.581 159.053 180.643 154.015 185.478C151.402 187.988 149.927 191.183 147.61 193.91C140.394 202.403 130.89 211.44 128.39 223C127.343 227.845 128.209 233.073 127.719 238C127.499 240.218 126.968 242.6 128.618 244.436C133.373 249.726 142.961 245.355 148 243z"/>
<path style="fill:#988f90; stroke:none;" d="M246.333 160.667C246.278 160.722 246.222 161.778 246.667 161.333C246.722 161.278 246.778 160.222 246.333 160.667z"/>
<path style="fill:#605a5a; stroke:none;" d="M245 161L246 162L245 161z"/>
<path style="fill:#dcdcdc; stroke:none;" d="M176 162C176.028 164.35 175.692 167.468 177.603 169.242C182.374 173.671 187.499 167.364 188 163C183.963 162.49 180.08 162.011 176 162z"/>
<path style="fill:#b5b5b5; stroke:none;" d="M235 162L235 167C235.83 164.97 235.83 164.03 235 162z"/>
<path style="fill:#020000; stroke:none;" d="M245.333 162.667C245.278 162.722 245.222 163.778 245.667 163.333C245.722 163.278 245.778 162.222 245.333 162.667z"/>
<path style="fill:#988e8f; stroke:none;" d="M248 162L247 167C248.318 165.074 248.651 164.234 248 162z"/>
<path style="fill:#363231; stroke:none;" d="M244 163L245 164L244 163z"/>
<path style="fill:#635f5e; stroke:none;" d="M244 164L245 165L244 164z"/>
<path style="fill:#534e4f; stroke:none;" d="M286 169L287 170L286 169z"/>
<path style="fill:#000000; stroke:none;" d="M287 169L288 170L287 169z"/>
<path style="fill:#494949; stroke:none;" d="M288 169L289 170L288 169z"/>
<path style="fill:#bcbcbc; stroke:none;" d="M289 169L290 170L289 169z"/>
<path style="fill:#dadada; stroke:none;" d="M368.644 179.068C365.238 181.68 371.255 186.901 374.379 184.781C378.016 182.313 371.73 176.701 368.644 179.068z"/>
<path style="fill:#d3d3d3; stroke:none;" d="M339 182L339 186C340.87 184.771 341.224 184.132 342 182L339 182z"/>
<path style="fill:#ffffff; stroke:none;" d="M222 183C219.944 183.094 217.987 183.201 215.995 183.789C214.673 184.18 213.222 184.66 212.059 185.417C209.468 187.103 205.967 192.394 211.148 193.461C214.571 194.167 218.39 191.563 220.258 188.9C221.551 187.056 221.76 185.158 222 183z"/>
<path style="fill:#898989; stroke:none;" d="M252 188L252 191L254 191L254 188L252 188z"/>
<path style="fill:#ffffff; stroke:none;" d="M153 213C154.232 212.663 155.638 212.483 156.701 211.683C164.884 205.522 151.036 199.071 151.627 208.96C151.713 210.39 152.471 211.718 153 213M326 215C326.094 216.709 326.083 218.39 326.742 220.009C327.271 221.309 328.095 222.695 329.228 223.562C337.156 229.633 342.827 216.251 332.986 215.109C330.693 214.843 328.305 215 326 215M148 241L148 243C146.203 243 146.479 243.014 145 244C146.906 251.223 145.159 254.162 143 261C146.296 263.2 144.908 265.444 145.482 269C145.883 271.479 147.229 273.718 148.245 275.981C149.12 277.93 149.726 280.129 152.147 280.498C155.605 281.024 165.162 278.207 165.383 273.982C165.527 271.254 163.182 268.857 163.147 265.985C163.042 257.237 165.635 247.927 156 243C157.629 240.362 159.789 237.841 160.867 234.91C163.206 228.548 157.165 220.162 150.005 222.619C141.458 225.552 139.975 237.132 148 241z"/>
<path style="fill:#eeeeee; stroke:none;" d="M142 229L142 232C143.015 230.861 143.309 230.388 144 229L142 229z"/>
<path style="fill:#898989; stroke:none;" d="M129 248C133.103 248 130 258.727 130 262C134.849 261.789 139.466 260.71 144 259C142.752 258.315 142.452 258.251 141 258C142.442 254.044 142.489 249.31 145 246C141.651 244.983 131.29 245.48 129 248z"/>
<path style="fill:#b7b7b7; stroke:none;" d="M376 245C373.263 247.483 369.987 248.774 368 252L366 251C362.539 254.559 358.054 257.08 353 257C350.813 260.884 348.456 262.383 345 259L340 261C340.751 265.086 340.12 267.238 337 270C337.378 279.1 332.453 279.22 325 281L325 283C328.592 284.181 331.42 285.197 334 288C339.519 289.547 342.724 297.405 348.981 297.033C353.565 296.761 356.622 290.066 356.113 286C355.775 283.302 353.386 280.952 354.831 278.185C357.458 273.155 366.905 271.139 372 270C369.327 265.949 367.434 260.438 370 256L369 253L376 255C377.458 251.695 377.407 248.527 378 245L376 245z"/>
<path style="fill:#b8b8b8; stroke:none;" d="M143 246C142.962 250.265 142.084 253.903 141 258C147 256.218 147.286 251.466 146 246L143 246z"/>
<path style="fill:#b7b7b7; stroke:none;" d="M130 247C126.817 251.51 122.575 259.557 130 262C130.214 257.023 131.984 251.731 130 247z"/>
<path style="fill:#8f8f8f; stroke:none;" d="M162.333 248.667C162.278 248.722 162.222 249.778 162.667 249.333C162.722 249.278 162.778 248.222 162.333 248.667z"/>
<path style="fill:#bcbcbc; stroke:none;" d="M407 250C408.088 252.997 408.95 254.052 412 255C411.705 251.201 411.025 249.384 407 250z"/>
<path style="fill:#737373; stroke:none;" d="M163 250L163 253C163.696 251.446 163.696 251.554 163 250z"/>
<path style="fill:#e2e2e2; stroke:none;" d="M412.333 252.667C412.278 252.722 412.222 253.778 412.667 253.333C412.722 253.278 412.778 252.222 412.333 252.667z"/>
<path style="fill:#e4e4e4; stroke:none;" d="M369 253L369 255C370.635 254.455 370.455 254.635 371 253L369 253z"/>
<path style="fill:#dfdfdf; stroke:none;" d="M371 254L371 256L374 256L374 254L371 254z"/>
<path style="fill:#ffffff; stroke:none;" d="M347.322 257.042C343.912 259.261 347.535 262.99 350.527 260.958C353.785 258.744 350.341 255.078 347.322 257.042z"/>
<path style="fill:#cbc8c9; stroke:none;" d="M352 258L356 258C354.444 256.187 353.556 256.187 352 258z"/>
<path style="fill:#8a8889; stroke:none;" d="M356.667 256.333C356.222 256.778 357.278 256.722 357.333 256.667C357.778 256.222 356.722 256.278 356.667 256.333z"/>
<path style="fill:#dddddd; stroke:none;" d="M368 256L368 259C369.195 257.777 369.316 257.58 370 256L368 256M132 282C133.907 285.153 136.505 286.031 140 287L139 285C140.242 285.269 141.573 285.711 142.871 285.647C152.926 285.153 146.838 274.099 145.818 269C145.304 266.434 145.896 263.595 146 261C140.727 260.065 129.31 260.098 126.083 265.494C124.577 268.011 127.089 270.674 127.782 273.039C128.919 276.923 126.743 281.724 132 282z"/>
<path style="fill:#dcdcdc; stroke:none;" d="M409 261C408.1 264.041 408.008 266.831 408 270C412.825 268.346 414.201 263.098 409 261z"/>
<path style="fill:#878787; stroke:none;" d="M127 264L130 263C128.222 262.045 127.979 262.234 127 264z"/>
<path style="fill:#ffffff; stroke:none;" d="M338 262C337.132 264.355 336.426 266.531 336 269C339.024 267.237 339.615 265.442 340 262L338 262z"/>
<path style="fill:#8a8a8a; stroke:none;" d="M340 262L338 270C340.352 267.491 341.272 265.295 340 262z"/>
<path style="fill:#dddddd; stroke:none;" d="M359 289C361.651 288.942 364.445 289.679 367.015 288.825C371.972 287.176 375.905 283.499 381 282C380.913 278.286 380.629 271.131 376.698 269.212C373.67 267.734 369.52 270.284 366.715 271.316C361.022 273.41 351.111 275.713 355.492 283.975C356.436 285.755 357.818 287.379 359 289z"/>
<path style="fill:#777777; stroke:none;" d="M337 271L338 272L337 271M166.667 273.333C166.222 273.778 167.278 273.722 167.333 273.667C167.778 273.222 166.722 273.278 166.667 273.333z"/>
<path style="fill:#b8b8b8; stroke:none;" d="M166 274C162.069 278.502 155.796 280.144 150 281C154.081 287.466 164.409 284.001 171 284C170.759 280.245 169.679 277.352 168 274L166 274z"/>
<path style="fill:#8a8a8a; stroke:none;" d="M168 274C169.211 277.364 170.556 280.436 171 284C165.955 284 161 284.793 156 284.867C153.659 284.902 151.319 283.949 149 284.178C146.48 284.428 144.498 286.248 142 286.583C139.342 286.94 136.529 285.669 134 285C138.512 292.215 144.49 298.187 148.279 305.91C149.271 307.932 151.871 311.227 150.748 313.581C149.599 315.992 146.151 315.776 144.004 316.498C140.899 317.543 138.057 319.874 136.897 323.015C135.557 326.643 137.767 330.289 137.103 333.981C135.452 343.163 127.042 347.501 119 349C120.016 362.051 131.609 350.796 135.801 346.285C141.129 340.553 140.806 333.603 144.136 327.094C145.721 323.997 148.925 322.508 150.881 319.737C153.473 316.065 154.412 311.362 155 307C150.024 303.408 143.361 292.865 151.204 288.179C154.004 286.506 157.876 287.002 161 287C160.072 291.514 158.385 295.391 163 298C162.797 294.98 162.124 291.848 164.357 289.391C167.345 286.103 174.464 284.479 175.958 290.106C177.782 296.979 170.567 307.899 165 299C163.315 301.549 162.519 303.993 162 307C170.27 306.976 181.842 301.453 179.526 291C178.191 284.975 173.11 282.798 174 276C171.904 274.957 170.301 274.397 168 274z"/>
<path style="fill:#ffffff; stroke:none;" d="M174 275C173.715 277.715 173.234 280.398 174.353 283C176.306 287.541 181.087 290.522 178.895 296C176.999 300.738 172.163 305.88 167 306.768C163.357 307.394 158.624 305.443 155.738 308.529C153.46 310.965 153.343 315.104 151.633 317.96C149.677 321.226 146.052 322.948 144.175 326.184C142.51 329.055 142.357 332.884 141.185 336C137.858 344.847 130.118 355.245 120 355C129.819 364.199 136.967 346.73 146 344.465C150.435 343.352 156.628 346.805 159.816 341.697C161.13 339.592 160.649 337.158 159.783 335C158.351 331.43 155.395 328.043 155.553 324C155.739 319.242 161.951 308.945 167.639 313.758C170.739 316.381 167.867 321.569 168.074 324.981C168.182 326.768 168.705 329.44 171.104 329.079C176.958 328.197 179.617 316.028 175 313C177.243 307.54 181.849 302.444 183.49 296.961C185.803 289.234 178.998 280.281 174 275M342 282C346.833 282.631 348.253 280.591 349 276C344.939 276.633 343.15 278.034 342 282z"/>
<path style="fill:#6e6e6e; stroke:none;" d="M336 277L337 278L336 277z"/>
<path style="fill:#808080; stroke:none;" d="M354 277L355 278L354 277z"/>
<path style="fill:#c1c1c1; stroke:none;" d="M173 278L174 279L173 278z"/>
<path style="fill:#767676; stroke:none;" d="M335 278L336 279L335 278z"/>
<path style="fill:#626262; stroke:none;" d="M353 278L353 281C353.696 279.446 353.696 279.554 353 278z"/>
<path style="fill:#757575; stroke:none;" d="M333.667 279.333C333.222 279.778 334.278 279.722 334.333 279.667C334.778 279.222 333.722 279.278 333.667 279.333z"/>
<path style="fill:#e5e5e5; stroke:none;" d="M348 279L348 282C348.696 280.446 348.696 280.554 348 279z"/>
<path style="fill:#929292; stroke:none;" d="M149 280L148 283C149.745 283.89 151.125 284.453 153 285L149 280z"/>
<path style="fill:#c2c2c2; stroke:none;" d="M173 281L174 282L173 281z"/>
<path style="fill:#505050; stroke:none;" d="M324 281L325 282L324 281z"/>
<path style="fill:#b7b7b7; stroke:none;" d="M131.333 282.667C131.278 282.722 131.222 283.778 131.667 283.333C131.722 283.278 131.778 282.222 131.333 282.667z"/>
<path style="fill:#ffffff; stroke:none;" d="M365 355C370.955 355.124 377.102 358.107 382.96 357.601C387.849 357.178 392.749 349.905 391.393 345.17C390.475 341.966 387.094 338.427 384.816 336.104C375.181 326.283 363.884 329.046 352 326C352.64 321.264 352.878 316.169 355.726 312.093C359.678 306.439 371.332 300.268 365.681 291.398C360.27 282.904 353.806 299.107 347.999 298.418C343.519 297.887 340.645 293.061 337.715 290.188C331.345 283.943 320.482 279.743 314.715 287.915C313.44 289.721 311.851 291.807 311.674 294.09C311.443 297.067 312.637 304.051 314.073 306.675C315.41 309.118 317.997 310.44 319.107 313.093C322.169 320.409 321.838 329.52 330.09 333.972C337.36 337.895 347.434 332.354 354.981 334.529C360.902 336.235 359.045 341.45 360.727 345.91C361.982 349.241 364.268 351.398 365 355z"/>
<path style="fill:#787878; stroke:none;" d="M322 282C324.537 284.02 326.782 284.67 330 285C327.451 283.315 325.007 282.519 322 282z"/>
<path style="fill:#d8d8d8; stroke:none;" d="M342.667 282.333C342.222 282.778 343.278 282.722 343.333 282.667C343.778 282.222 342.722 282.278 342.667 282.333z"/>
<path style="fill:#b7b7b7; stroke:none;" d="M369 300L373 299C373.936 304.104 375.761 306.103 381 305C383.731 308.247 389.132 308.172 393 309.764C398.505 312.029 401.991 317.073 408 318C405.028 321.972 398.488 328.962 398.188 333.965C397.936 338.186 401.483 340.614 401 345C399.652 343.232 398.878 342.017 398 340C392.292 342.909 387.181 353.891 386 360C390.819 357.053 391.287 350.85 396 348C395.185 352.216 392.332 355.449 391.433 359.576C390.07 365.826 394.996 377.331 400 381L399 383C400.895 384.866 402.219 387.831 404.386 389.339C411.82 394.51 409.965 379.843 410 377C406.425 373.006 405.838 367.181 405 362C404.126 364.052 404.047 365.747 404 368C401.032 364.833 400.988 361.101 400 357C393.819 360.244 395.687 365.254 397 371C391.147 363.322 393.397 353.336 403 350C403.504 352.146 404.119 353.979 405 356C407.067 353.079 409.299 350.132 411 347C418.785 352.784 421.723 361.716 420 371C422.328 368.042 422.704 364.717 423 361C424.598 366.357 426.967 374.429 426.721 380C426.448 386.194 423.054 391.562 423 398C427.543 391.633 428.995 382.662 429 375C430.606 378.13 431.591 379.93 435 381L435 378L438 378C436.723 379.915 436.723 379.085 438 381C439.572 379.122 440.736 377.11 442 375C443.372 378.367 444.628 381.362 445 385C447.846 381.242 445.051 376.943 447.197 373.377C448.559 371.112 450.982 372.649 452.182 374.167C454.47 377.062 454.857 381.008 457 384C457.819 381.031 457.696 379.002 457 376C459.4 377.124 460.373 377.315 463 377C460.459 372.444 454.405 368.53 452.797 363.91C450.908 358.485 460.865 348.332 451.867 344.889C450.738 344.457 449.183 344.762 448.024 344.883C446.237 345.072 444.708 345.481 443 346L443 354C439.379 353.596 437.513 352.636 435 350C428.363 349.947 426.626 344.275 422.021 340.35C414.652 334.07 413.388 325.85 408.441 318C403.706 310.487 397.002 304.36 392 297.001C388.517 291.876 381.416 287.932 380 282C369.803 285 367.126 289.905 369 300z"/>
<path style="fill:#b4b4b4; stroke:none;" d="M419 283C419.588 286.483 420.763 287.647 424 289C424.599 284.903 422.967 283.632 419 283z"/>
<path style="fill:#878787; stroke:none;" d="M131.667 284.333C131.222 284.778 132.278 284.722 132.333 284.667C132.778 284.222 131.722 284.278 131.667 284.333z"/>
<path style="fill:#b8b8b8; stroke:none;" d="M64 353C65.7515 355.834 66.8376 357.756 70 359C70.9299 345.716 84.3828 339.517 95 334C95 335.797 95.0143 335.521 96 337C98.105 334.625 99.0801 331.528 101.278 329.214C106.021 324.219 112.604 323.862 119 324C118.492 329.597 116.16 333.666 111 336.315C107.009 338.363 103.213 337.696 101 342L105 342C103.378 344.038 101.837 345.54 101 348C102.195 347.402 101.977 347.534 103 346L103 348C104.195 347.402 103.977 347.534 105 346L106 350C108.021 346.93 109.809 344.903 113 343C112.591 346.664 109.683 353.587 105 351C101.687 352.97 99.2716 360.427 104 361L99 363L104 365C108.266 361.603 111.243 357.777 115 354L115 358C117.126 358.231 118.879 358.246 121 358C120.198 354.972 119.311 352.124 119 349C127.395 347.938 136.008 343.533 137.427 333.981C137.978 330.27 135.785 326.605 137.408 323.015C138.808 319.917 141.836 317.56 145 316.498C146.878 315.868 149.639 316.045 150.928 314.262C152.73 311.769 149.781 308.12 148.716 305.91C146.112 300.505 142.942 295.608 139.076 291.005C137.532 289.166 135.668 286.377 133.13 285.881C130.919 285.449 128.732 287.409 126.961 288.436C121.437 291.639 117.24 294.542 113.699 300C110.2 305.393 109.03 311.563 105.911 317C103.338 321.486 98.9005 325.375 95 328.699C88.4896 334.247 79.4402 335.079 73.2137 340.557C69.1594 344.124 68.3449 349.567 64 353z"/>
<path style="fill:#eaeaea; stroke:none;" d="M139 285C141.312 286.745 142.979 287.283 145 285C142.879 285.246 141.126 285.231 139 285z"/>
<path style="fill:#b8b8b8; stroke:none;" d="M169.996 285.852C163.313 286.744 161.209 292.377 163.809 297.995C164.903 300.358 166.811 303.899 169.924 303.534C176.671 302.744 180.254 284.483 169.996 285.852z"/>
<path style="fill:#838383; stroke:none;" d="M330 285C331.248 285.685 331.548 285.749 333 286C331.752 285.315 331.452 285.251 330 285z"/>
<path style="fill:#dddddd; stroke:none;" d="M425.333 285.667C425.278 285.722 425.222 286.778 425.667 286.333C425.722 286.278 425.778 285.222 425.333 285.667z"/>
<path style="fill:#828282; stroke:none;" d="M333 286L334 287L333 286z"/>
<path style="fill:#8b8b8b; stroke:none;" d="M357 286C355.324 289.585 353.913 293.146 353 297L359 290C358.436 288.248 358.081 287.458 357 286z"/>
<path style="fill:#b4b4b4; stroke:none;" d="M151 287L152 288L151 287z"/>
<path style="fill:#ffffff; stroke:none;" d="M158 297C159.322 294.029 160.317 291.18 161 288C157.672 287.019 153.521 286.335 150.349 288.318C146.961 290.436 147.635 294.69 151.188 296.177C153.236 297.034 155.824 296.877 158 297z"/>
<path style="fill:#c9c9c9; stroke:none;" d="M160 287L161 288L160 287z"/>
<path style="fill:#6f6f6f; stroke:none;" d="M335 287L336 288L335 287z"/>
<path style="fill:#5d5d5d; stroke:none;" d="M336 288L337 289L336 288z"/>
<path style="fill:#585858; stroke:none;" d="M337 289L338 290L337 289z"/>
<path style="fill:#848484; stroke:none;" d="M366 289C366.176 290.878 366.438 292.199 367 294C367.779 292.231 367.912 290.964 368 289L366 289z"/>
<path style="fill:#7a7a7a; stroke:none;" d="M338 290L339 291L338 290z"/>
<path style="fill:#828282; stroke:none;" d="M339 291L340 292L339 291z"/>
<path style="fill:#c8c8c8; stroke:none;" d="M356 291L357 292L356 291z"/>
<path style="fill:#b2b2b2; stroke:none;" d="M339 292L340 293L339 292z"/>
<path style="fill:#808080; stroke:none;" d="M340 292C341.973 296.128 344.514 298.094 349 299C346.348 296.233 343.211 294.098 340 292z"/>
<path style="fill:#dddddd; stroke:none;" d="M148 294C148.047 299.225 148.941 305.405 154.989 306.948C157.169 307.504 159.751 306.885 162 307C163.495 301.276 163.428 299.197 159 295C154.988 296.844 151.715 296.255 148 294z"/>
<path style="fill:#525252; stroke:none;" d="M367.333 294.667C367.278 294.722 367.222 295.778 367.667 295.333C367.722 295.278 367.778 294.222 367.333 294.667z"/>
<path style="fill:#ffffff; stroke:none;" d="M167 299C169.626 298.161 170.161 297.626 171 295C168.374 295.839 167.839 296.374 167 299z"/>
<path style="fill:#bdbdbd; stroke:none;" d="M179 295L180 296L179 295z"/>
<path style="fill:#6a6a6a; stroke:none;" d="M352 296L353 297L352 296z"/>
<path style="fill:#8c8c8c; stroke:none;" d="M367 296C365.165 302.264 360.99 305.52 358 311C359.857 311.194 361.153 311.21 363 311C364.398 314.657 366.165 315.563 370 316L371 321C365.528 322.808 358.687 322.812 353 322C354.47 331.006 363.679 325.755 370 327.649C379.162 330.394 388.071 338.422 392 347C395.926 341.504 396.939 335.705 400 330C396.688 324.998 393.014 320.495 387 319C389.925 309.769 400.406 318.528 404 323C405.752 321.41 406.794 320.046 408 318C402.92 316.577 399.741 312.387 395 310.189C386.534 306.265 376.144 309.548 373 299L369 300C368.489 298.048 368.267 297.543 367 296z"/>
<path style="fill:#969696; stroke:none;" d="M349 297C350.506 297.683 351.315 297.826 353 298C351.494 297.317 350.685 297.174 349 297z"/>
<path style="fill:#747474; stroke:none;" d="M163 298L164 299L163 298z"/>
<path style="fill:#6b6b6b; stroke:none;" d="M349 298C350.248 298.685 350.548 298.749 352 299C350.752 298.315 350.452 298.251 349 298z"/>
<path style="fill:#ffffff; stroke:none;" d="M136 299.552C127.214 300.111 126.366 310.643 135.999 309.566C143.877 308.686 144.426 299.017 136 299.552z"/>
<path style="fill:#c4c4c4; stroke:none;" d="M365 301L366 302L365 301z"/>
<path style="fill:#a5a5a5; stroke:none;" d="M376 306C378.3 306.916 379.377 306.879 381 305L376 306z"/>
<path style="fill:#ebebeb; stroke:none;" d="M198 307C198.65 308.3 198.147 308 200 308C198.521 308.986 198.797 309 197 309C199.412 310.355 200.432 309.649 201 307L198 307z"/>
<path style="fill:#7e7e7e; stroke:none;" d="M357 309C354.637 313.156 353.3 317.419 352 322C355.506 319.344 357.129 313.032 359 309L357 309z"/>
<path style="fill:#8a8889; stroke:none;" d="M196.667 310.333C196.222 310.778 197.278 310.722 197.333 310.667C197.778 310.222 196.722 310.278 196.667 310.333z"/>
<path style="fill:#bcbabb; stroke:none;" d="M198.667 310.333C198.222 310.778 199.278 310.722 199.333 310.667C199.778 310.222 198.722 310.278 198.667 310.333z"/>
<path style="fill:#8b8b8b; stroke:none;" d="M200.667 311.333C200.222 311.778 201.278 311.722 201.333 311.667C201.778 311.222 200.722 311.278 200.667 311.333z"/>
<path style="fill:#c7c7c7; stroke:none;" d="M355 311L356 312L355 311z"/>
<path style="fill:#b7b7b7; stroke:none;" d="M371 321L370 316C366.442 315.268 364.829 314.138 363 311C359.195 311.398 350.076 317.597 355.643 321.933C358.504 324.161 367.979 322.495 371 321z"/>
<path style="fill:#c7c7c7; stroke:none;" d="M354 313L355 314L354 313z"/>
<path style="fill:#c4c4c4; stroke:none;" d="M153 314L154 315L153 314z"/>
<path style="fill:#ffffff; stroke:none;" d="M387 316C388.523 318.069 390.085 319.681 391.979 321.428C393.479 322.812 394.857 324.393 396.424 325.696C399.34 328.121 404.365 328.113 403.458 323.021C402.256 316.28 392.291 313.609 387 316z"/>
<path style="fill:#dadada; stroke:none;" d="M391.667 314.333C391.222 314.778 392.278 314.722 392.333 314.667C392.778 314.222 391.722 314.278 391.667 314.333z"/>
<path style="fill:#d0d0d0; stroke:none;" d="M387 315L388 316L387 315z"/>
<path style="fill:#bfbfbf; stroke:none;" d="M387 317L387 319L389 319C388.455 317.365 388.635 317.545 387 317M151 318L152 319L151 318z"/>
<path style="fill:#d0d0d0; stroke:none;" d="M400 318L401 319L400 318z"/>
<path style="fill:#d5d5d5; stroke:none;" d="M352.333 319.667C352.278 319.722 352.222 320.778 352.667 320.333C352.722 320.278 352.778 319.222 352.333 319.667z"/>
<path style="fill:#b7b7b7; stroke:none;" d="M390 320L391 321L390 320z"/>
<path style="fill:#bdbdbd; stroke:none;" d="M147 322L148 323L147 322z"/>
<path style="fill:#b6b6b6; stroke:none;" d="M352 322L353 323L352 322z"/>
<path style="fill:#8d8d8d; stroke:none;" d="M99 332C102.392 331.562 105.688 330.857 109 330C108.818 332.902 107.959 335.257 107 338C114.584 336.083 118.633 331.889 119 324C111.274 323.455 102.814 324.247 99 332z"/>
<path style="fill:#989898; stroke:none;" d="M155.333 323.667C155.278 323.722 155.222 324.778 155.667 324.333C155.722 324.278 155.778 323.222 155.333 323.667z"/>
<path style="fill:#b2b2b2; stroke:none;" d="M352.333 324.667C352.278 324.722 352.222 325.778 352.667 325.333C352.722 325.278 352.778 324.222 352.333 324.667z"/>
<path style="fill:#d2d2d0; stroke:none;" d="M166 325C166.354 329.45 168.405 330.707 172 333L175 330C171.148 328.631 169.06 327.952 166 325z"/>
<path style="fill:#d1d1d1; stroke:none;" d="M365 327C366.769 327.779 368.036 327.912 370 328C368.231 327.221 366.964 327.088 365 327z"/>
<path style="fill:#ababab; stroke:none;" d="M156 328L157 329L156 328z"/>
<path style="fill:#b8b8b8; stroke:none;" d="M388 328C388.396 332.808 390.054 336.639 392 341C399.76 336.89 395.734 328.253 388 328z"/>
<path style="fill:#4c4c4c; stroke:none;" d="M399 328L400 329L399 328z"/>
<path style="fill:#ffffff; stroke:none;" d="M195 329L196 333C197.949 332.064 198.55 331.608 200 330C198.199 329.438 196.878 329.176 195 329z"/>
<path style="fill:#aeaeae; stroke:none;" d="M373.667 329.333C373.222 329.778 374.278 329.722 374.333 329.667C374.778 329.222 373.722 329.278 373.667 329.333z"/>
<path style="fill:#818282; stroke:none;" d="M407 329L406 333L407 334C408.797 334 408.521 333.986 410 333L409 329L407 329z"/>
<path style="fill:#c2c2c2; stroke:none;" d="M107.667 330.333C107.222 330.778 108.278 330.722 108.333 330.667C108.778 330.222 107.722 330.278 107.667 330.333z"/>
<path style="fill:#949494; stroke:none;" d="M157 330L158 331L157 330z"/>
<path style="fill:#ffffff; stroke:none;" d="M98 335C100.892 335.806 102.094 336.677 104 339C107.002 337.17 108.465 335.154 110 332C105.41 330.656 100.69 330.603 98 335z"/>
<path style="fill:#b9b9b7; stroke:none;" d="M169 331L169 333L171 333L171 331L169 331z"/>
<path style="fill:#b8b8b8; stroke:none;" d="M50 336C53.2685 331.206 43.7399 331.152 41 333.167C36.0475 336.808 38.823 340.375 37.6667 345C36.8446 348.288 34.9266 351.399 36.3333 355C37.6482 358.366 43.5617 359.378 45.5 356C47.5111 352.495 43.0944 348.49 44.5 345C45.1662 343.346 47.0883 342.547 47.8333 341C48.4766 339.664 48.2272 333.164 50 336z"/>
<path style="fill:#b7b5b6; stroke:none;" d="M195.333 332.667C195.278 332.722 195.222 333.778 195.667 333.333C195.722 333.278 195.778 332.222 195.333 332.667z"/>
<path style="fill:#cbcbcb; stroke:none;" d="M109 333L110 334L109 333z"/>
<path style="fill:#a8a8a8; stroke:none;" d="M159.333 333.667C159.278 333.722 159.222 334.778 159.667 334.333C159.722 334.278 159.778 333.222 159.333 333.667z"/>
<path style="fill:#787677; stroke:none;" d="M196.667 333.333C196.222 333.778 197.278 333.722 197.333 333.667C197.778 333.222 196.722 333.278 196.667 333.333z"/>
<path style="fill:#858686; stroke:none;" d="M49 334C48.4382 335.801 48.1759 337.122 48 339C49.3182 337.074 49.6513 336.234 49 334z"/>
<path style="fill:#818181; stroke:none;" d="M90 336C91.9926 336.712 93.8686 336.825 96 337L95 334C93.125 334.547 91.7447 335.11 90 336z"/>
<path style="fill:#474546; stroke:none;" d="M98 335L99 336L98 335z"/>
<path style="fill:#dddddd; stroke:none;" d="M74 352C81.5733 351.727 104.808 353.686 100 340L104 338C101.01 335.075 99.4068 336.271 95.5756 336.638C85.7222 337.583 76.886 342.151 74 352z"/>
<path style="fill:#979797; stroke:none;" d="M160 335L161 336L160 335z"/>
<path style="fill:#adadad; stroke:none;" d="M332.667 335.333C332.222 335.778 333.278 335.722 333.333 335.667C333.778 335.222 332.722 335.278 332.667 335.333z"/>
<path style="fill:#878586; stroke:none;" d="M97 336L98 337L97 336z"/>
<path style="fill:#a8a8a8; stroke:none;" d="M161 336L161 340C161.71 338.24 161.71 337.759 161 336z"/>
<path style="fill:#cac4c6; stroke:none;" d="M49.3333 337.667C49.2777 337.722 49.2222 338.778 49.6667 338.333C49.7222 338.278 49.7778 337.222 49.3333 337.667z"/>
<path style="fill:#807e7f; stroke:none;" d="M96 337L97 338L96 337z"/>
<path style="fill:#8d8d8d; stroke:none;" d="M372 337C370.076 343.557 371.723 348.182 379 349C378.995 342.461 378.668 339.134 372 337z"/>
<path style="fill:#cccccc; stroke:none;" d="M373.667 337.333C373.222 337.778 374.278 337.722 374.333 337.667C374.778 337.222 373.722 337.278 373.667 337.333z"/>
<path style="fill:#8c8c8c; stroke:none;" d="M347.999 338.484C344.454 338.972 339.928 340.165 337.149 342.509C331.351 347.4 337.035 349.982 342 349.992C343.666 349.996 345.352 349.961 347 349.695C349.66 349.265 352.558 348.359 353.968 345.856C356.621 341.145 352.453 337.871 347.999 338.484z"/>
<path style="fill:#d6d6d6; stroke:none;" d="M397 338C398.139 339.015 398.612 339.309 400 340C399.02 338.217 399.092 338.406 397 338z"/>
<path style="fill:#888485; stroke:none;" d="M101 339L102 340L101 339z"/>
<path style="fill:#8c8c8c; stroke:none;" d="M236 352C241.327 353.446 244.538 351.296 248.227 347.409C249.619 345.942 251.966 343.742 251.248 341.444C249.494 335.824 240.141 344.119 238.653 346.086C237.27 347.913 236.64 349.846 236 352z"/>
<path style="fill:#fefefe; stroke:none;" d="M397 339C398.029 341.612 398.93 343.119 401 345L402 341L397 339z"/>
<path style="fill:#6a6a6a; stroke:none;" d="M100.333 340.667C100.278 340.722 100.222 341.778 100.667 341.333C100.722 341.278 100.778 340.222 100.333 340.667z"/>
<path style="fill:#d1d1d1; stroke:none;" d="M400.667 340.333C400.222 340.778 401.278 340.722 401.333 340.667C401.778 340.222 400.722 340.278 400.667 340.333z"/>
<path style="fill:#d4d4d4; stroke:none;" d="M37 341L37 346C37.8299 343.97 37.8299 343.03 37 341z"/>
<path style="fill:#a1a1a1; stroke:none;" d="M355.333 341.667C355.278 341.722 355.222 342.778 355.667 342.333C355.722 342.278 355.778 341.222 355.333 341.667z"/>
<path style="fill:#888888; stroke:none;" d="M101 342L102 345L104 345C104.986 343.522 105 343.797 105 342L101 342z"/>
<path style="fill:#b1b1b1; stroke:none;" d="M242 342L243 343L242 342z"/>
<path style="fill:#bcbcbc; stroke:none;" d="M389 342L390 343L389 342z"/>
<path style="fill:#e6e6e6; stroke:none;" d="M424.667 342.333C424.222 342.778 425.278 342.722 425.333 342.667C425.778 342.222 424.722 342.278 424.667 342.333z"/>
<path style="fill:#ffffff; stroke:none;" d="M106 352C111.125 350.629 112.713 348.225 113 343C108.407 344.839 107.258 347.387 106 352z"/>
<path style="fill:#838383; stroke:none;" d="M145.667 343.333C145.222 343.778 146.278 343.722 146.333 343.667C146.778 343.222 145.722 343.278 145.667 343.333z"/>
<path style="fill:#cccccc; stroke:none;" d="M147 343C147.684 344.58 147.805 344.777 149 346C148.316 344.42 148.195 344.223 147 343z"/>
<path style="fill:#8d8d8d; stroke:none;" d="M144 344L145 345L144 344z"/>
<path style="fill:#afafaf; stroke:none;" d="M379 344L379 349C379.83 346.97 379.83 346.03 379 344z"/>
<path style="fill:#dadada; stroke:none;" d="M448 344C449.248 344.685 449.548 344.749 451 345C449.752 344.315 449.452 344.251 448 344z"/>
<path style="fill:#7c7c7c; stroke:none;" d="M75 346L76 347L75 346z"/>
<path style="fill:#818181; stroke:none;" d="M100 346L101 347L100 346z"/>
<path style="fill:#b9b9b9; stroke:none;" d="M102 346C96.51 350.156 89.5025 353.1 83 355.451C80.5226 356.347 77.0139 358.743 74.6219 356.377C72.4644 354.243 74.0906 349.701 74 347C67.4219 354.79 72.6231 361.545 81 364C79.1994 364.562 77.8782 364.824 76 365C78.8008 369.989 81.5577 371.946 80 378L82 378C81.25 382.473 82.7479 383.852 87 385C86.9951 377.612 85.4191 372.526 82 366C87.7119 371.296 87.3138 377.937 89 385C91.0935 380.572 88.7116 371.895 91.6929 368.607C93.5464 366.563 96.5514 367.641 98.892 366.978C101.128 366.344 101.907 364.855 103 363L99 364C100.856 362.952 101.944 362.487 104 362C102.752 361.315 102.452 361.251 101 361C102.387 358.605 101.637 349.946 106 353C106.18 350.353 105.819 348.532 105 346C103.805 346.598 104.023 346.466 103 348C103 346.147 103.3 346.65 102 346z"/>
<path style="fill:#6d6d6d; stroke:none;" d="M74.3333 347.667C74.2778 347.722 74.2222 348.778 74.6667 348.333C74.7222 348.278 74.7778 347.222 74.3333 347.667z"/>
<path style="fill:#8c8c8c; stroke:none;" d="M411 347C409.444 348.988 408.086 350.729 407 353C411.684 353.206 412.729 356.288 415 360L418 358C419.001 359.924 419.077 360.098 421 361C418.725 355.536 416.518 349.714 411 347z"/>
<path style="fill:#959595; stroke:none;" d="M97 348L98 349L97 348z"/>
<path style="fill:#919191; stroke:none;" d="M393 348L392 353C393.737 352.938 393.64 352.98 395 354L396 348L393 348z"/>
<path style="fill:#dedede; stroke:none;" d="M443.333 348.667C443.278 348.722 443.222 349.778 443.667 349.333C443.722 349.278 443.778 348.222 443.333 348.667z"/>
<path style="fill:#888888; stroke:none;" d="M74 350L75 351L74 350z"/>
<path style="fill:#727272; stroke:none;" d="M94 350L95 351L94 350z"/>
<path style="fill:#e7e7e7; stroke:none;" d="M334 352C338.892 350.836 343.08 351.378 348 352C344.428 349.56 337.079 348.477 334 352z"/>
<path style="fill:#dedcdd; stroke:none;" d="M397 371C396.113 364.94 394.637 361.265 400 357C400.745 360.998 400.5 365.528 404 368C404 361.968 404.405 355.901 403 350C393.52 351.954 389.853 364.395 397 371z"/>
<path style="fill:#8b8b8b; stroke:none;" d="M73 351C73.3765 362.464 85.0842 355.198 92 353C86.3544 350.631 79.0566 352.014 73 351z"/>
<path style="fill:#8e8e8e; stroke:none;" d="M92.6667 351.333C92.2222 351.778 93.2778 351.722 93.3333 351.667C93.7778 351.222 92.7222 351.278 92.6667 351.333z"/>
<path style="fill:#8d8d8d; stroke:none;" d="M138 366C141.056 365.822 143.951 365.674 147 366L147 352C139.936 353.142 138.071 359.616 138 366z"/>
<path style="fill:#c2c2c2; stroke:none;" d="M393.333 352.667C393.278 352.722 393.222 353.778 393.667 353.333C393.722 353.278 393.778 352.222 393.333 352.667z"/>
<path style="fill:#bcbcbc; stroke:none;" d="M140 353C140.545 354.635 140.365 354.455 142 355L142 353L140 353z"/>
<path style="fill:#858585; stroke:none;" d="M391.333 353.667C391.278 353.722 391.222 354.778 391.667 354.333C391.722 354.278 391.778 353.222 391.333 353.667z"/>
<path style="fill:#7b797a; stroke:none;" d="M406.333 353.667C406.278 353.722 406.222 354.778 406.667 354.333C406.722 354.278 406.778 353.222 406.333 353.667z"/>
<path style="fill:#7d797a; stroke:none;" d="M63 356L66 355C64.2218 354.045 63.9786 354.234 63 356z"/>
<path style="fill:#888888; stroke:none;" d="M70 354L70 359L66 358L67 364C68.8782 363.824 70.1994 363.562 72 363C72.4184 369.213 76.3511 371.469 80 376C82.9944 371.596 78.8567 368.42 76 365L81 365C76.3895 361.148 73.1412 359.432 70 354z"/>
<path style="fill:#828282; stroke:none;" d="M113 354L112 358C114.697 357.422 114.789 356.739 115 354L113 354z"/>
<path style="fill:#ffffff; stroke:none;" d="M336 355C336.488 362.253 348.628 371.953 353.883 362.606C355.076 360.482 354.173 357.296 354 355C347.792 354.949 342.188 353.852 336 355z"/>
<path style="fill:#7b7b7b; stroke:none;" d="M393 354L394 355L393 354z"/>
<path style="fill:#828282; stroke:none;" d="M390 355L391 356L390 355z"/>
<path style="fill:#7e7c7d; stroke:none;" d="M404 355L405 366C406.547 362.313 406.424 358.199 404 355z"/>
<path style="fill:#bdbdbd; stroke:none;" d="M62.3333 356.667C62.2778 356.722 62.2222 357.778 62.6667 357.333C62.7223 357.278 62.7777 356.222 62.3333 356.667z"/>
<path style="fill:#dadada; stroke:none;" d="M99 356L96 360C98.7493 359.403 100.791 358.794 99 356z"/>
<path style="fill:#c4c4c4; stroke:none;" d="M152.667 356.333C152.222 356.778 153.278 356.722 153.333 356.667C153.778 356.222 152.722 356.278 152.667 356.333z"/>
<path style="fill:#939393; stroke:none;" d="M316 359C318.726 358.449 320.033 357.942 322 356C319.257 356.438 317.675 356.779 316 359z"/>
<path style="fill:#808080; stroke:none;" d="M392 356L393 357L392 356z"/>
<path style="fill:#7c7c7c; stroke:none;" d="M436.667 356.333C436.222 356.778 437.278 356.722 437.333 356.667C437.778 356.222 436.722 356.278 436.667 356.333z"/>
<path style="fill:#dddddd; stroke:none;" d="M37.6667 357.333C37.2222 357.778 38.2778 357.722 38.3333 357.667C38.7778 357.222 37.7222 357.278 37.6667 357.333z"/>
<path style="fill:#898284; stroke:none;" d="M121 357L119 358C120.482 358.791 121.796 358.87 121 357z"/>
<path style="fill:#aaaaaa; stroke:none;" d="M146 357L146 360C146.696 358.446 146.696 358.554 146 357z"/>
<path style="fill:#808080; stroke:none;" d="M152 357L152 360L154 360L154 357L152 357z"/>
<path style="fill:#ececec; stroke:none;" d="M317 364C319.863 362.289 321.966 360.19 323 357C319.564 358.653 318.041 360.322 317 364z"/>
<path style="fill:#828282; stroke:none;" d="M389 357L390 358L389 357z"/>
<path style="fill:#dedcdd; stroke:none;" d="M440 358C435.902 357.068 429.569 361.725 430.816 366.703C431.651 370.033 435.041 366.972 436.054 365.655C436.676 364.846 437.156 363.871 437.654 362.985C438.578 361.341 439.302 359.744 440 358z"/>
<path style="fill:#e4e4e4; stroke:none;" d="M454.333 357.667C454.278 357.722 454.222 358.778 454.667 358.333C454.722 358.278 454.778 357.222 454.333 357.667z"/>
<path style="fill:#dedede; stroke:none;" d="M17 358L15 363L19 364C18.4023 362.805 18.5339 363.023 17 362C18.2965 360.406 18.5354 359.982 19 358L17 358z"/>
<path style="fill:#7f7f7f; stroke:none;" d="M115 358C116.248 358.685 116.548 358.749 118 359C116.752 358.315 116.452 358.251 115 358z"/>
<path style="fill:#b5b5b5; stroke:none;" d="M268 358C269.506 358.683 270.315 358.826 272 359C270.494 358.317 269.685 358.174 268 358z"/>
<path style="fill:#8c8c8c; stroke:none;" d="M205 380C207.264 384.062 211.49 387.779 216 385C217.823 387.818 219.715 387.895 223 388C221.243 390.459 219.449 392.23 217 394C217.082 396.691 215.216 400.495 215.866 402.907C216.422 404.971 219.083 406.202 220.719 407.279C224.949 410.063 231.573 417.407 236.892 416.218C241.769 415.127 243.695 407.235 248.015 404.424C253.212 401.043 259.333 402.675 265 401C264.973 397.986 265.875 395.781 267 393C277.269 395.445 293.058 391.5 301 400C306.327 397.315 308.337 391.55 314 389L313 385C317.771 385.244 320.439 384.164 320 379C317.33 380.122 315.644 381.161 313 380L310 381L312 388C309.482 387.921 307.462 388.392 305 389C305.955 387.233 306.566 386.393 308 385L307 383C308.783 382.02 308.594 382.092 309 380C306.623 380.572 304.442 380.891 302 381C303.103 379.543 303.543 379.103 305 378C301.402 376.268 297.313 376.11 294.04 373.57C287.395 368.413 285.104 360.749 276 358.8C270.568 357.638 261.767 358.581 257.17 361.819C253.872 364.142 251.784 367.634 247.999 369.347C243.33 371.46 237.91 370.833 233 372.043C223.488 374.387 214.768 378.16 205 380z"/>
<path style="fill:#848484; stroke:none;" d="M315 359L316 364C317.402 362.058 318.221 360.27 319 358L315 359z"/>
<path style="fill:#808080; stroke:none;" d="M388.333 358.667C388.278 358.722 388.222 359.778 388.667 359.333C388.722 359.278 388.778 358.222 388.333 358.667z"/>
<path style="fill:#eae8e9; stroke:none;" d="M406 358L406 368C407.763 364.95 407.366 361.227 406 358z"/>
<path style="fill:#a9a9a9; stroke:none;" d="M177 359C178.769 359.779 180.036 359.912 182 360C180.231 359.221 178.964 359.088 177 359z"/>
<path style="fill:#b7b7b7; stroke:none;" d="M278 359L279 360L278 359z"/>
<path style="fill:#8b8b8b; stroke:none;" d="M307 383L308 385C306.13 386.229 305.776 386.868 305 389L312 388C311.518 385.636 311.364 385.482 309 385L312 380C315.174 381.95 316.915 380.858 320 379C320.547 380.875 321.11 382.255 322 384C318.933 384.52 316.126 385.052 313 385L313 388C316.258 387.935 319.826 387.146 323 388.059C326.879 389.173 329.964 392.435 334 393.05C339.136 393.833 343.88 389.842 349.015 389.823C354.178 389.805 358.871 393.432 364 393.958C366.923 394.257 369.216 392.793 372 392.299C375.738 391.636 380.353 395.62 383.463 394.084C387.611 392.035 384.502 384.799 382.348 382.394C378.48 378.075 371.765 378.737 367.124 375.633C362.697 372.673 364.951 368.843 369.016 366.971C370.561 366.259 372.302 365.778 374 365.641C376.036 365.478 378.092 365.857 379.999 366.567C388.315 369.665 388.281 377.444 389.031 385C389.334 388.051 388.957 391.679 391.229 394.106C393.418 396.445 397.098 395.99 400 396C398.494 395.317 397.685 395.174 396 395C397.223 393.805 397.42 393.684 399 393C398.155 390.305 397.343 387.806 397 385L395 388C393.102 384.204 392.213 379.977 390.667 376C389.412 372.774 387.055 369.664 386 366.5C385.777 365.831 388.533 365.929 388 366C384.002 363.557 375.648 360.199 370.91 360.262C363.954 360.354 354.041 368.31 353 375C356.748 375.386 358.674 377.704 362.039 379.15C364.59 380.245 367.397 380.434 369.999 381.343C373.251 382.479 379.496 387.677 373.847 390.257C367.476 393.167 351.681 386.939 351 380C344.335 383.506 338.632 387.214 331.001 384.285C328.996 383.516 325.156 381.971 325.631 379.181C326.288 375.327 332.717 375.883 333.638 371.786C335.001 365.728 327.731 356.736 321.394 360.438C317.653 362.623 317.732 368.377 316.235 371.996C314.374 376.5 310.555 379.807 307 383z"/>
<path style="fill:#5a5a5a; stroke:none;" d="M391 359L392 360L391 359z"/>
<path style="fill:#a09e9f; stroke:none;" d="M404 359L404 362C404.696 360.446 404.696 360.554 404 359z"/>
<path style="fill:#9f9f9f; stroke:none;" d="M152.333 360.667C152.278 360.722 152.222 361.778 152.667 361.333C152.722 361.278 152.778 360.222 152.333 360.667z"/>
<path style="fill:#8b8b8b; stroke:none;" d="M168 364C166.497 369.478 169.328 373.592 169.596 379C169.859 384.312 166.645 391.471 164 396C173.927 402.991 182.318 413.974 196 411C193.272 405.14 183.712 398.003 184.918 391.04C185.403 388.239 188.022 386.623 189.611 384.487C190.887 382.771 191.948 378.499 194.666 378.681C197.588 378.876 199.717 383.157 202.129 384.562C206.584 387.159 211.949 387.955 217 388L216 385C211.097 386.825 204.487 383.511 201 380L206 382C206 379.915 205.862 380.276 208 380C203.275 376.807 196.928 372.787 191 373.149C184.756 373.53 173.534 384.622 171.995 372.024C171.795 370.388 171.969 368.642 172 367C175.695 366.533 179.265 366.031 183 366L183 360C180.477 360.007 177.644 359.737 175.259 360.726C172.41 361.908 171.229 363.68 168 364z"/>
<path style="fill:#909090; stroke:none;" d="M386 360L386 362L388 362L388 360L386 360z"/>
<path style="fill:#cdcdcd; stroke:none;" d="M17 361L17 363L20 363L20 361L17 361z"/>
<path style="fill:#959595; stroke:none;" d="M59 361L60 362L59 361z"/>
<path style="fill:#a9a9a9; stroke:none;" d="M137 361L137 364C137.696 362.446 137.696 362.554 137 361z"/>
<path style="fill:#717171; stroke:none;" d="M146.333 361.667C146.278 361.722 146.222 362.778 146.667 362.333C146.722 362.278 146.778 361.222 146.333 361.667z"/>
<path style="fill:#adadad; stroke:none;" d="M147.333 361.667C147.278 361.722 147.222 362.778 147.667 362.333C147.722 362.278 147.778 361.222 147.333 361.667z"/>
<path style="fill:#b1b1b1; stroke:none;" d="M315 361L315 365C315.71 363.241 315.71 362.759 315 361z"/>
<path style="fill:#656565; stroke:none;" d="M420 361L420 365C420.71 363.24 420.71 362.759 420 361z"/>
<path style="fill:#dedede; stroke:none;" d="M427 361C426.549 364.817 426.549 368.183 427 372C428.431 368.59 428.431 364.41 427 361z"/>
<path style="fill:#545454; stroke:none;" d="M58.3333 362.667C58.2778 362.722 58.2222 363.778 58.6667 363.333C58.7223 363.278 58.7778 362.222 58.3333 362.667z"/>
<path style="fill:#707070; stroke:none;" d="M152 362L152 365C152.696 363.446 152.696 363.554 152 362z"/>
<path style="fill:#c8c8c8; stroke:none;" d="M169 365L173 364C172.402 362.805 172.534 363.023 171 362C169.985 363.139 169.691 363.612 169 365z"/>
<path style="fill:#bdbdbd; stroke:none;" d="M57.3333 363.667C57.2778 363.722 57.2222 364.778 57.6667 364.333C57.7222 364.278 57.7778 363.222 57.3333 363.667z"/>
<path style="fill:#b5b5b5; stroke:none;" d="M69 364C70.1393 365.015 70.6116 365.309 72 366L72 363L69 364z"/>
<path style="fill:#737373; stroke:none;" d="M105 363L106 364L105 363z"/>
<path style="fill:#8a8a8a; stroke:none;" d="M102.333 364.667C102.278 364.722 102.222 365.778 102.667 365.333C102.722 365.278 102.778 364.222 102.333 364.667z"/>
<path style="fill:#717171; stroke:none;" d="M104 364L105 365L104 364z"/>
<path style="fill:#818181; stroke:none;" d="M132 364L133 365L132 364z"/>
<path style="fill:#acacac; stroke:none;" d="M133 364L134 365L133 364z"/>
<path style="fill:#929292; stroke:none;" d="M151 364L151 366L153 366C152.455 364.365 152.635 364.545 151 364z"/>
<path style="fill:#b3b3b3; stroke:none;" d="M254 364L255 365L254 364z"/>
<path style="fill:#999999; stroke:none;" d="M57.6667 365.333C57.2222 365.778 58.2778 365.722 58.3333 365.667C58.7778 365.222 57.7222 365.278 57.6667 365.333z"/>
<path style="fill:#8b8b8b; stroke:none;" d="M61 365L62 369L56 372C61.8036 374.339 64.1764 376.5 62 383C64.0182 383.34 64.9676 383.323 67 383C67 384.797 67.0143 384.521 68 386C72.0058 384.532 74.0497 381.573 73.7762 377.094C73.4888 372.387 69.5101 371.517 67 375L65 375C64.2765 371.753 64.6306 370.027 66 367C64.2553 366.11 62.875 365.547 61 365z"/>
<path style="fill:#838383; stroke:none;" d="M161 365L162 370C162.791 367.693 162.475 366.935 161 365z"/>
<path style="fill:#b9b9b9; stroke:none;" d="M162 365L163 366L162 365z"/>
<path style="fill:#dddddd; stroke:none;" d="M388 390C388 388.203 387.986 388.479 387 387C389.518 384.789 388.688 382.155 388.282 379C387.852 375.663 387.887 372.042 385.486 369.394C381.343 364.825 373.328 364.378 368.059 366.97C362.753 369.58 364.351 374.776 369.044 377.03C372.537 378.708 376.619 378.799 379.895 381.005C383.436 383.391 384.486 387.636 388 390z"/>
<path style="fill:#5d5d5d; stroke:none;" d="M391 365L392 366L391 365z"/>
<path style="fill:#b9b9b9; stroke:none;" d="M48 375C49.4091 377.564 50.4028 378.67 53 380L54 374C54.7224 376.418 54.9481 378.472 55 381C57.3425 379.637 58.4917 378.268 60 376L63 380C64.6467 374.944 60.6294 372.401 56 373L62 369C57.7194 363.131 51.8925 372.026 48 375z"/>
<path style="fill:#9a9a9a; stroke:none;" d="M82 366C82.6836 367.58 82.8048 367.777 84 369L84 366L82 366z"/>
<path style="fill:#bababa; stroke:none;" d="M138 366L138 368L140 368L140 366L138 366z"/>
<path style="fill:#9f9f9f; stroke:none;" d="M175 366C176.769 366.779 178.036 366.912 180 367C178.231 366.221 176.964 366.088 175 366z"/>
<path style="fill:#8a8a8a; stroke:none;" d="M90 372L98 368C93.7924 366.254 90.761 367.44 90 372z"/>
<path style="fill:#b7b7b7; stroke:none;" d="M172.333 367.667C172.278 367.722 172.222 368.778 172.667 368.333C172.722 368.278 172.778 367.222 172.333 367.667z"/>
<path style="fill:#dadada; stroke:none;" d="M15 368C12.4049 370.846 11.2597 373.14 11 377C16.8303 376.546 17.5844 372.87 15 368z"/>
<path style="fill:#888888; stroke:none;" d="M84 368C85.0149 373.898 86.9831 378.887 87 385L82 384C83.1036 386.357 83.9564 387.376 86 389C87.3028 387.484 88.1875 386.876 90 386C87.8187 380.015 88.5294 372.774 84 368z"/>
<path style="fill:#686868; stroke:none;" d="M392 368L393 369L392 368z"/>
<path style="fill:#9f9f9f; stroke:none;" d="M161 369L162 370L161 369z"/>
<path style="fill:#919191; stroke:none;" d="M406 369L407 374C407.651 371.766 407.318 370.926 406 369z"/>
<path style="fill:#a4a4a4; stroke:none;" d="M162 370C161.089 372.617 160.656 374.273 161 377C162.289 374.57 162.806 372.639 162 370z"/>
<path style="fill:#a3a3a3; stroke:none;" d="M243.667 370.333C243.222 370.778 244.278 370.722 244.333 370.667C244.778 370.222 243.722 370.278 243.667 370.333z"/>
<path style="fill:#878787; stroke:none;" d="M393 370L394 371L393 370z"/>
<path style="fill:#868283; stroke:none;" d="M421 370C421 373.509 420.218 377.569 423 380C422.63 376.525 422.917 372.916 421 370z"/>
<path style="fill:#b0b0b0; stroke:none;" d="M234.667 371.333C234.222 371.778 235.278 371.722 235.333 371.667C235.778 371.222 234.722 371.278 234.667 371.333z"/>
<path style="fill:#e2e2e2; stroke:none;" d="M319 371C319.899 373.124 319.876 373.101 322 374C320.897 372.543 320.457 372.103 319 371z"/>
<path style="fill:#ababab; stroke:none;" d="M363.333 371.667C363.278 371.722 363.222 372.778 363.667 372.333C363.722 372.278 363.778 371.222 363.333 371.667z"/>
<path style="fill:#a0a0a0; stroke:none;" d="M136 372C136.684 373.58 136.805 373.777 138 375C137.316 373.42 137.195 373.223 136 372z"/>
<path style="fill:#bcbcbc; stroke:none;" d="M171.333 372.667C171.278 372.722 171.222 373.778 171.667 373.333C171.722 373.278 171.778 372.222 171.333 372.667z"/>
<path style="fill:#999999; stroke:none;" d="M352 372C352.307 374.123 352.382 374.686 354 376C353.404 374.44 352.911 373.377 352 372z"/>
<path style="fill:#7a7a7a; stroke:none;" d="M394 372L395 373L394 372z"/>
<path style="fill:#dfdfdf; stroke:none;" d="M428.333 372.667C428.278 372.722 428.222 373.778 428.667 373.333C428.722 373.278 428.778 372.222 428.333 372.667z"/>
<path style="fill:#aaaaaa; stroke:none;" d="M157 375L160 374C158.222 373.045 157.979 373.234 157 375z"/>
<path style="fill:#b7b7b7; stroke:none;" d="M322 373L321 375L323 375C323 373.147 323.3 373.65 322 373z"/>
<path style="fill:#aeaeae; stroke:none;" d="M364.333 373.667C364.278 373.722 364.222 374.778 364.667 374.333C364.722 374.278 364.778 373.222 364.333 373.667z"/>
<path style="fill:#b6b6b6; stroke:none;" d="M408 373L409 374L408 373z"/>
<path style="fill:#c4c0c1; stroke:none;" d="M422 373L422 377C422.71 375.241 422.71 374.759 422 373z"/>
<path style="fill:#818181; stroke:none;" d="M54 374L53 380L49 378C49.7591 381.68 50.6935 385.248 51 389C52.416 386.958 52.7451 385.489 53 383C54.9435 383.402 55.0565 383.402 57 383L54 374z"/>
<path style="fill:#878787; stroke:none;" d="M158 374C158.496 377.034 158.874 378.071 162 378C160.74 376.049 159.981 375.16 158 374z"/>
<path style="fill:#b7b7b7; stroke:none;" d="M167.333 374.667C167.278 374.722 167.222 375.778 167.667 375.333C167.722 375.278 167.778 374.222 167.333 374.667z"/>
<path style="fill:#5c5c5c; stroke:none;" d="M395 374L396 375L395 374z"/>
<path style="fill:#787878; stroke:none;" d="M408 374L408 377C408.696 375.446 408.696 375.554 408 374z"/>
<path style="fill:#aba6a8; stroke:none;" d="M45.6667 375.333C45.2222 375.778 46.2778 375.722 46.3333 375.667C46.7778 375.222 45.7222 375.278 45.6667 375.333z"/>
<path style="fill:#514c4e; stroke:none;" d="M47 375L48 376L47 375z"/>
<path style="fill:#6a6a6a; stroke:none;" d="M137 375L138 376L137 375z"/>
<path style="fill:#c6c6c6; stroke:none;" d="M388 375L388 378C388.696 376.446 388.696 376.554 388 375z"/>
<path style="fill:#949494; stroke:none;" d="M392 375L393 376L392 375z"/>
<path style="fill:#9f9f9f; stroke:none;" d="M44 376L45 377L44 376z"/>
<path style="fill:#817174; stroke:none;" d="M60 376L62 382C62.9125 379.186 62.0735 378.017 60 376z"/>
<path style="fill:#727272; stroke:none;" d="M138.333 376.667C138.278 376.722 138.222 377.778 138.667 377.333C138.722 377.278 138.778 376.222 138.333 376.667z"/>
<path style="fill:#c0c0c0; stroke:none;" d="M392 376L393 379C393.685 377.752 393.749 377.452 394 376L392 376z"/>
<path style="fill:#615f60; stroke:none;" d="M396 376L397 377L396 376z"/>
<path style="fill:#7f7d7e; stroke:none;" d="M423 376L424 377L423 376z"/>
<path style="fill:#c5c5c5; stroke:none;" d="M68 377L68 382C68.8299 379.97 68.8299 379.03 68 377z"/>
<path style="fill:#909090; stroke:none;" d="M90.3333 377.667C90.2778 377.722 90.2222 378.778 90.6667 378.333C90.7222 378.278 90.7778 377.222 90.3333 377.667z"/>
<path style="fill:#b1afb0; stroke:none;" d="M423 377C422.316 378.58 422.195 378.777 421 380C421.686 384.95 420.014 389.948 420 395C423.117 390.047 425.349 382.6 423 377z"/>
<path style="fill:#7c7a7b; stroke:none;" d="M440 377L439 381C440.656 379.596 440.751 379.046 440 377z"/>
<path style="fill:#eeeeee; stroke:none;" d="M461 377C461.684 378.58 461.805 378.777 463 380C462.316 378.42 462.195 378.223 461 377z"/>
<path style="fill:#727272; stroke:none;" d="M462 377L463 378L462 377z"/>
<path style="fill:#aaaaaa; stroke:none;" d="M463.333 377.667C463.278 377.722 463.222 378.778 463.667 378.333C463.722 378.278 463.778 377.222 463.333 377.667z"/>
<path style="fill:#6a6667; stroke:none;" d="M81.3333 378.667C81.2778 378.722 81.2222 379.778 81.6667 379.333C81.7222 379.278 81.7778 378.222 81.3333 378.667z"/>
<path style="fill:#808080; stroke:none;" d="M139.333 378.667C139.278 378.722 139.222 379.778 139.667 379.333C139.722 379.278 139.778 378.222 139.333 378.667z"/>
<path style="fill:#a9a9a9; stroke:none;" d="M161 378C160.425 380.396 160.525 380.487 163 381C162.309 379.612 162.015 379.139 161 378z"/>
<path style="fill:#b6b6b6; stroke:none;" d="M174.667 378.333C174.222 378.778 175.278 378.722 175.333 378.667C175.778 378.222 174.722 378.278 174.667 378.333z"/>
<path style="fill:#e3e3e3; stroke:none;" d="M182 382C185.813 383.443 187.694 381.553 189 378C186.487 379.106 184.323 380.523 182 382z"/>
<path style="fill:#a7a7a7; stroke:none;" d="M366 378C367.139 379.015 367.612 379.309 369 380C368.02 378.217 368.092 378.406 366 378z"/>
<path style="fill:#635f60; stroke:none;" d="M397 378L398 379L397 378z"/>
<path style="fill:#8c8788; stroke:none;" d="M409 378C410.634 383.203 410.446 386.106 408 391C416.142 391.824 413.524 381.205 409 378z"/>
<path style="fill:#a0a0a0; stroke:none;" d="M459.667 378.333C459.222 378.778 460.278 378.722 460.333 378.667C460.778 378.222 459.722 378.278 459.667 378.333z"/>
<path style="fill:#767070; stroke:none;" d="M57.3333 379.667C57.2778 379.722 57.2222 380.778 57.6667 380.333C57.7222 380.278 57.7778 379.222 57.3333 379.667z"/>
<path style="fill:#d2d0d1; stroke:none;" d="M394 379L395 383C396.05 381.265 396.046 381.068 396 379L394 379z"/>
<path style="fill:#b9b9b9; stroke:none;" d="M73 380L73 383C73.6961 381.446 73.6961 381.554 73 380z"/>
<path style="fill:#e7e7e7; stroke:none;" d="M201 380C202.297 381.92 202.791 382.316 205 383C203.55 381.392 202.949 380.936 201 380z"/>
<path style="fill:#b2b2b2; stroke:none;" d="M366 380L367 381L366 380z"/>
<path style="fill:#595959; stroke:none;" d="M431.333 380.667C431.278 380.722 431.222 381.778 431.667 381.333C431.722 381.278 431.778 380.222 431.333 380.667z"/>
<path style="fill:#8d8d8d; stroke:none;" d="M460.333 380.667C460.278 380.722 460.222 381.778 460.667 381.333C460.722 381.278 460.778 380.222 460.333 380.667z"/>
<path style="fill:#979797; stroke:none;" d="M140 381L141 385C141.393 383.076 141.146 382.64 140 381z"/>
<path style="fill:#a0a0a0; stroke:none;" d="M370.667 381.333C370.222 381.778 371.278 381.722 371.333 381.667C371.778 381.222 370.722 381.278 370.667 381.333z"/>
<path style="fill:#4b4748; stroke:none;" d="M399 381L400 382L399 381z"/>
<path style="fill:#898788; stroke:none;" d="M431 383C432.58 382.316 432.777 382.195 434 381C432.42 381.684 432.223 381.805 431 383z"/>
<path style="fill:#aaaaaa; stroke:none;" d="M205 382L205 384L207 384C206.455 382.365 206.635 382.545 205 382z"/>
<path style="fill:#8b898a; stroke:none;" d="M421 382L422 383L421 382z"/>
<path style="fill:#c2c2c2; stroke:none;" d="M174 383C176.765 385.393 178.578 385.067 182 384C179.427 383 176.769 383.172 174 383z"/>
<path style="fill:#cecece; stroke:none;" d="M310 383L309 385L311 385C311 383.147 311.3 383.65 310 383z"/>
<path style="fill:#e5e5e5; stroke:none;" d="M320.667 383.333C320.222 383.778 321.278 383.722 321.333 383.667C321.778 383.222 320.722 383.278 320.667 383.333z"/>
<path style="fill:#565656; stroke:none;" d="M400 383L401 384L400 383z"/>
<path style="fill:#595758; stroke:none;" d="M421.333 383.667C421.278 383.722 421.222 384.778 421.667 384.333C421.722 384.278 421.778 383.222 421.333 383.667z"/>
<path style="fill:#a9a9a9; stroke:none;" d="M172.667 384.333C172.222 384.778 173.278 384.722 173.333 384.667C173.778 384.222 172.722 384.278 172.667 384.333z"/>
<path style="fill:#d9d9d9; stroke:none;" d="M172 385L172 387C173.457 388.103 173.897 388.543 175 390C175.924 388.352 176.449 386.825 177 385C175.15 384.798 173.85 384.798 172 385z"/>
<path style="fill:#bbbbbb; stroke:none;" d="M141.667 385.333C141.222 385.778 142.278 385.722 142.333 385.667C142.778 385.222 141.722 385.278 141.667 385.333z"/>
<path style="fill:#b5b5b5; stroke:none;" d="M334.667 385.333C334.222 385.778 335.278 385.722 335.333 385.667C335.778 385.222 334.722 385.278 334.667 385.333z"/>
<path style="fill:#777271; stroke:none;" d="M401.333 385.667C401.278 385.722 401.222 386.778 401.667 386.333C401.722 386.278 401.778 385.222 401.333 385.667z"/>
<path style="fill:#585657; stroke:none;" d="M420.333 385.667C420.278 385.722 420.222 386.778 420.667 386.333C420.722 386.278 420.778 385.222 420.333 385.667z"/>
<path style="fill:#808080; stroke:none;" d="M142 386C142.378 388.551 142.988 390.627 144 393C144.866 390.048 143.981 388.277 142 386z"/>
<path style="fill:#e4e4e4; stroke:none;" d="M344 386L345 387L344 386z"/>
<path style="fill:#aaaaaa; stroke:none;" d="M389.333 386.667C389.278 386.722 389.222 387.778 389.667 387.333C389.722 387.278 389.778 386.222 389.333 386.667z"/>
<path style="fill:#898788; stroke:none;" d="M419 386C418.455 387.635 418.635 387.455 417 388C417.596 389.56 418.089 390.623 419 392C419.687 389.58 419.922 388.323 419 386z"/>
<path style="fill:#b7b7b7; stroke:none;" d="M262 392L262 388C254.449 386.829 254.885 392.794 262 392z"/>
<path style="fill:#c4c4c4; stroke:none;" d="M387 387L388 390C386.521 389.014 386.797 389 385 389L387 393C388.586 390.664 389.197 388.992 387 387z"/>
<path style="fill:#c6c6c6; stroke:none;" d="M394.667 387.333C394.222 387.778 395.278 387.722 395.333 387.667C395.778 387.222 394.722 387.278 394.667 387.333z"/>
<path style="fill:#656462; stroke:none;" d="M402.333 387.667C402.278 387.722 402.222 388.778 402.667 388.333C402.722 388.278 402.778 387.222 402.333 387.667z"/>
<path style="fill:#c3c3c3; stroke:none;" d="M413 387L413 391C413.71 389.241 413.71 388.759 413 387z"/>
<path style="fill:#adadad; stroke:none;" d="M429.333 387.667C429.278 387.722 429.222 388.778 429.667 388.333C429.722 388.278 429.778 387.222 429.333 387.667z"/>
<path style="fill:#9a9a9a; stroke:none;" d="M144.333 388.667C144.278 388.722 144.222 389.778 144.667 389.333C144.722 389.278 144.778 388.222 144.333 388.667z"/>
<path style="fill:#b8b8b8; stroke:none;" d="M207 395C213.557 396.933 218.692 395.08 222 389C214.906 388.695 209.241 386.516 207 395z"/>
<path style="fill:#a2a0a1; stroke:none;" d="M216 388C218.233 389.009 220.604 389.405 223 390C221.074 387.792 218.875 388.032 216 388z"/>
<path style="fill:#787878; stroke:none;" d="M428 388L427 393C428.318 391.074 428.651 390.234 428 388z"/>
<path style="fill:#b5b5b5; stroke:none;" d="M376 389L377 390L376 389z"/>
<path style="fill:#4b4a48; stroke:none;" d="M403 389L404 390L403 389z"/>
<path style="fill:#494544; stroke:none;" d="M404 390L405 391L404 390z"/>
<path style="fill:#878080; stroke:none;" d="M404 391L405 392L404 391z"/>
<path style="fill:#635f60; stroke:none;" d="M405 391C406.458 392.081 407.248 392.436 409 393C407.686 391.382 407.123 391.307 405 391z"/>
<path style="fill:#c3c1c2; stroke:none;" d="M419 391L419 397C419.951 394.715 419.951 393.285 419 391z"/>
<path style="fill:#adadad; stroke:none;" d="M369 392C370.248 392.685 370.548 392.749 372 393C370.752 392.315 370.452 392.251 369 392z"/>
<path style="fill:#e8e8e8; stroke:none;" d="M368 393C371.607 394.513 375.259 393.891 379 393C375.398 391.503 371.78 392.522 368 393z"/>
<path style="fill:#8d8c8d; stroke:none;" d="M405 392C405.482 394.364 405.636 394.518 408 395C406.636 393.181 406.508 393.969 407 392L405 392z"/>
<path style="fill:#4c4a4b; stroke:none;" d="M418.333 392.667C418.278 392.722 418.222 393.778 418.667 393.333C418.722 393.278 418.778 392.222 418.333 392.667z"/>
<path style="fill:#5f5f5f; stroke:none;" d="M426 392L426 395C426.696 393.446 426.696 393.554 426 392z"/>
<path style="fill:#b8b8b8; stroke:none;" d="M267 393C265.456 395.851 264.8 397.764 265 401C259.084 402.409 252.3 400.903 247.043 404.424C243.044 407.104 241.47 414.727 236.892 415.819C232.139 416.954 229.057 411.152 225 409.761C218.379 407.49 210.959 416.016 208 421C213.738 420.359 217.331 414.082 223.001 414.975C227.884 415.743 229.713 418.467 233.259 421.356C236.111 423.679 239.861 424.581 242.985 426.475C246.631 428.685 249.548 432.235 254.004 432.747C261.642 433.624 270.43 430.273 278 429.289C281.984 428.772 286.008 429.21 290 428.83C294.788 428.375 300.223 426.822 305 427.143C308.394 427.37 311.581 429.46 315 430C311.198 424.418 305.989 424.199 300 422.809C294.017 421.421 289.459 417.899 283 418.055C274.394 418.262 266.486 424.248 258 426C258.648 421.723 261.238 418.912 262.868 415C263.907 412.508 264.26 409.588 266.43 407.738C270.051 404.651 280.496 403.451 284.826 405.268C290.073 407.469 292.221 416.13 298.981 414.442C306.159 412.65 305.005 401.129 299.657 397.86C290.26 392.114 277.313 394.915 267 393z"/>
<path style="fill:#7a7a7a; stroke:none;" d="M367 394C370.647 395.53 377.242 396.156 380 393C375.623 393.553 371.422 393.997 367 394z"/>
<path style="fill:#939393; stroke:none;" d="M427.333 393.667C427.278 393.722 427.222 394.778 427.667 394.333C427.722 394.278 427.778 393.222 427.333 393.667z"/>
<path style="fill:#817f80; stroke:none;" d="M418 394C417.014 395.478 417 395.203 417 397C418.766 396.021 418.955 395.778 418 394z"/>
<path style="fill:#e0e0e0; stroke:none;" d="M168 395C169.104 397.357 169.956 398.376 172 400C170.896 397.643 170.044 396.624 168 395z"/>
<path style="fill:#8c8a8b; stroke:none;" d="M205 395C206.248 395.685 206.548 395.749 208 396C206.752 395.315 206.452 395.251 205 395z"/>
<path style="fill:#c3c3c3; stroke:none;" d="M379.667 395.333C379.222 395.778 380.278 395.722 380.333 395.667C380.778 395.222 379.722 395.278 379.667 395.333z"/>
<path style="fill:#bbb9ba; stroke:none;" d="M405 397C406.58 396.316 406.777 396.195 408 395C406.42 395.684 406.223 395.805 405 397z"/>
<path style="fill:#afafaf; stroke:none;" d="M426.667 395.333C426.222 395.778 427.278 395.722 427.333 395.667C427.778 395.222 426.722 395.278 426.667 395.333z"/>
<path style="fill:#bab8b9; stroke:none;" d="M204.667 396.333C204.222 396.778 205.278 396.722 205.333 396.667C205.778 396.222 204.722 396.278 204.667 396.333z"/>
<path style="fill:#5f5050; stroke:none;" d="M332.333 396.667C332.278 396.722 332.222 397.778 332.667 397.333C332.722 397.278 332.778 396.222 332.333 396.667z"/>
<path style="fill:#777576; stroke:none;" d="M403.667 396.333C403.222 396.778 404.278 396.722 404.333 396.667C404.778 396.222 403.722 396.278 403.667 396.333z"/>
<path style="fill:#ffffff; stroke:none;" d="M74 397C73.9997 399.97 74.2272 403.077 73.6103 406C72.8851 409.437 70.9395 412.352 71.5262 415.996C72.3718 421.248 77.284 426.469 80 431C94.8502 426.848 80.489 405.707 78 397L74 397z"/>
<path style="fill:#918382; stroke:none;" d="M330.667 397.333C330.222 397.778 331.278 397.722 331.333 397.667C331.778 397.222 330.722 397.278 330.667 397.333z"/>
<path style="fill:#7b7b7b; stroke:none;" d="M409.667 397.333C409.222 397.778 410.278 397.722 410.333 397.667C410.778 397.222 409.722 397.278 409.667 397.333z"/>
<path style="fill:#bcbcbc; stroke:none;" d="M183 398L184 399L183 398z"/>
<path style="fill:#b8b8b8; stroke:none;" d="M329 398C329.25 400.732 329.46 403.399 328.351 405.996C326.967 409.239 324.031 411.212 324.24 415.039C324.65 422.541 333.79 424.415 334.084 432C334.236 435.916 330.834 439.627 326.985 437.708C322.656 435.549 319.871 432.155 315 431C316.85 433.472 320.222 435.491 321.512 438.259C323.372 442.25 320.185 448.847 327.019 448.435C328.016 448.375 329.042 447.941 329.985 447.647C331.197 447.269 332.551 446.809 333.57 446.026C337.321 443.148 337.063 435.425 343 436C354.691 430.837 341.255 412.379 340 404C339.315 405.248 339.251 405.548 339 407C336.694 402.065 334.57 399.111 329 398z"/>
<path style="fill:#9e9292; stroke:none;" d="M332.667 398.333C332.222 398.778 333.278 398.722 333.333 398.667C333.778 398.222 332.722 398.278 332.667 398.333z"/>
<path style="fill:#bfbfbf; stroke:none;" d="M172 399C172.899 401.124 172.876 401.101 175 402C173.897 400.543 173.457 400.103 172 399z"/>
<path style="fill:#d3d3d3; stroke:none;" d="M184 399L185 400L184 399z"/>
<path style="fill:#7f7d7e; stroke:none;" d="M334 400L335 401L334 400z"/>
<path style="fill:#979797; stroke:none;" d="M280 404C281.506 404.683 282.315 404.826 284 405C282.494 404.317 281.685 404.174 280 404z"/>
<path style="fill:#bdbdbd; stroke:none;" d="M217.667 405.333C217.222 405.778 218.278 405.722 218.333 405.667C218.778 405.222 217.722 405.278 217.667 405.333z"/>
<path style="fill:#8c8c8c; stroke:none;" d="M298 423C299.322 420.029 300.317 417.18 301 414C294.022 415.28 292.99 410.482 287.816 407.228C282.667 403.991 272.635 403.904 267.228 406.703C263.954 408.397 260.207 417.48 259.132 420.941C258.686 422.377 258.889 423.677 260.337 424.382C265.983 427.129 273.822 420.252 279 418.789C285.912 416.836 292.014 419.867 298 423z"/>
<path style="fill:#a3a3a3; stroke:none;" d="M284 405C285.139 406.015 285.612 406.309 287 407C286.02 405.217 286.092 405.406 284 405z"/>
<path style="fill:#8b898a; stroke:none;" d="M301 413L302 414L301 413z"/>
<path style="fill:#8c8c8c; stroke:none;" d="M197 433C200.048 432.395 202.259 431.154 205 429.71C208.109 428.072 218.425 425.826 216.503 432.997C214.635 439.968 203.352 438.042 207 447C210.721 445.243 213.967 442.947 218 442C216.394 445.106 214.186 447.699 213 451C215.296 450.998 217.733 451.188 220.002 450.772C221.85 450.433 223.465 449.717 224.957 448.566C234.679 441.067 226.476 433.265 226 424C231.691 424.292 242.228 427.024 244.494 433.044C245.943 436.895 242.783 443.686 242.644 447.999C242.57 450.29 241.981 453.113 244.438 454.397C246.027 455.228 248.26 455.087 250.001 455.281C251.953 455.499 253.986 455.935 255.895 455.218C263.764 452.262 258.318 443.571 261.228 438.278C262.391 436.16 264.845 435.407 267.001 434.725C272.077 433.12 277.699 432.464 283 432.09C286.809 431.821 289.78 432.425 292 429C294.458 429.646 295.542 429.646 298 429C294.396 427.53 290.803 428.794 287 428.961C276.598 429.416 265.274 433.242 255.001 432.617C250.453 432.34 247.593 428.722 243.961 426.475C240.089 424.081 235.77 422.774 232.039 420.09C228.776 417.742 225.378 414.276 221.014 414.438C217.518 414.568 215.606 417.527 212.91 419.278C210.44 420.882 207.482 421.408 205.004 423.029C201.171 425.536 198.809 428.89 197 433z"/>
<path style="fill:#e0e0e0; stroke:none;" d="M228 416C228.899 418.124 228.876 418.101 231 419C230.101 416.876 230.124 416.899 228 416z"/>
<path style="fill:#ffffff; stroke:none;" d="M432 418C432.017 419.89 431.829 422.032 432.434 423.856C435.18 432.145 451.379 421.281 440.941 417.553C440.028 417.227 438.95 417.299 438.004 417.34C436.008 417.428 433.996 417.843 432 418z"/>
<path style="fill:#5a5657; stroke:none;" d="M298 422L299 423L298 422z"/>
<path style="fill:#9b9b9b; stroke:none;" d="M258 424C258.98 425.783 258.908 425.594 261 426C259.861 424.985 259.388 424.691 258 424z"/>
<path style="fill:#b6b6b6; stroke:none;" d="M363 426C365.561 427.232 368.178 427.635 371 428C368.321 425.899 366.361 425.541 363 426z"/>
<path style="fill:#8c8c8c; stroke:none;" d="M299 430C304.557 430.047 309.735 430.694 313.656 435.108C316.646 438.474 317.816 443.267 313.772 446.397C306.837 451.762 295.879 443.383 288.468 448.858C285.747 450.868 283.001 455.37 286.333 458.066C288.893 460.136 293.025 460.545 296 461.9C304.625 465.83 311.576 469.224 321 471C320.517 467.201 318.423 461.69 320.117 458.055C322.829 452.238 330.157 453.795 334.985 451.427C340.67 448.64 345.78 440.74 348 435C346.122 435.176 344.801 435.438 343 436C340.946 434.318 339.221 435.932 337.722 438.063C334.452 442.711 333.326 448.531 326.048 448.11C320.339 447.78 323.25 441.633 322.014 438.259C319.414 431.166 304.533 422.488 299 430z"/>
<path style="fill:#828282; stroke:none;" d="M361 430C366.294 430.004 370.845 431.127 376 432C372.07 427.532 365.538 425.384 361 430z"/>
<path style="fill:#767676; stroke:none;" d="M298 428C295.6 429.124 294.627 429.315 292 429C293.663 431.278 299.494 431.964 298 428z"/>
<path style="fill:#2b2b2b; stroke:none;" d="M360 429L361 430L360 429z"/>
<path style="fill:#efefef; stroke:none;" d="M81 431C82.5431 432.267 83.0478 432.489 85 433L85 430L81 431z"/>
<path style="fill:#b9b9b9; stroke:none;" d="M217.333 430.667C217.278 430.722 217.222 431.778 217.667 431.333C217.722 431.278 217.778 430.222 217.333 430.667z"/>
<path style="fill:#bdbdbd; stroke:none;" d="M299.667 430.333C299.222 430.778 300.278 430.722 300.333 430.667C300.778 430.222 299.722 430.278 299.667 430.333z"/>
<path style="fill:#d5d5d5; stroke:none;" d="M304 430C305.248 430.685 305.548 430.749 307 431C305.752 430.315 305.451 430.251 304 430z"/>
<path style="fill:#e5e5e5; stroke:none;" d="M291.667 431.333C291.222 431.778 292.278 431.722 292.333 431.667C292.778 431.222 291.722 431.278 291.667 431.333z"/>
<path style="fill:#d1d1d1; stroke:none;" d="M309 431L310 432L309 431z"/>
<path style="fill:#fefefe; stroke:none;" d="M207 435C208.924 433.999 209.098 433.922 210 432C207.876 432.899 207.899 432.876 207 435z"/>
<path style="fill:#d2d2d2; stroke:none;" d="M279 432C280.248 432.685 280.548 432.749 282 433C280.752 432.315 280.452 432.251 279 432z"/>
<path style="fill:#c3c3c3; stroke:none;" d="M311 432L312 433L311 432z"/>
<path style="fill:#8c8c8c; stroke:none;" d="M376 432C376.824 433.914 378.925 436.639 378.812 438.774C378.584 443.085 368.145 443.997 365 445C371.319 448.785 380.321 447.002 387 445C386.798 443.15 386.798 441.85 387 440C383.347 437.219 380.171 433.942 376 432z"/>
<path style="fill:#c0c0c0; stroke:none;" d="M228.667 434.333C228.222 434.778 229.278 434.722 229.333 434.667C229.778 434.222 228.722 434.278 228.667 434.333z"/>
<path style="fill:#dedede; stroke:none;" d="M245.333 434.667C245.278 434.722 245.222 435.778 245.667 435.333C245.722 435.278 245.778 434.222 245.333 434.667z"/>
<path style="fill:#cecece; stroke:none;" d="M267 434L268 435L267 434z"/>
<path style="fill:#c8c8c8; stroke:none;" d="M313 434L314 435L313 434z"/>
<path style="fill:#b3b3b3; stroke:none;" d="M261.667 436.333C261.222 436.778 262.278 436.722 262.333 436.667C262.778 436.222 261.722 436.278 261.667 436.333z"/>
<path style="fill:#e6e6e6; stroke:none;" d="M260 437L260 440C261.015 438.861 261.309 438.388 262 437L260 437z"/>
<path style="fill:#a19fa0; stroke:none;" d="M331 437C330.014 438.478 330 438.203 330 440C331.289 438.557 331.401 438.766 331 437z"/>
<path style="fill:#c7c7c7; stroke:none;" d="M316 438L317 439L316 438z"/>
<path style="fill:#e2e2e2; stroke:none;" d="M379 438L379 441C379.696 439.446 379.696 439.554 379 438z"/>
<path style="fill:#e9e9e9; stroke:none;" d="M260 441L260 445C260.71 443.24 260.71 442.76 260 441z"/>
<path style="fill:#cfcfcf; stroke:none;" d="M377 441L378 442L377 441z"/>
<path style="fill:#403c3d; stroke:none;" d="M386 441L387 442L386 441z"/>
<path style="fill:#cfcfcf; stroke:none;" d="M214 442C215.377 442.911 216.44 443.404 218 444C216.686 442.382 216.123 442.307 214 442z"/>
<path style="fill:#dddddd; stroke:none;" d="M241 442C240.673 448.295 236.74 452.208 235 458C241.409 460.951 247.326 457.305 254 457C250.279 454.771 246.24 455.003 242 455C242.366 450.358 243.779 446.073 241 442z"/>
<path style="fill:#c2bebf; stroke:none;" d="M386 442L387 443L386 442z"/>
<path style="fill:#bbbbbb; stroke:none;" d="M249 443L250 449C254.93 447.361 253.57 443.763 249 443z"/>
<path style="fill:#7a7a7a; stroke:none;" d="M367 443C368.769 443.779 370.036 443.912 372 444C370.231 443.221 368.964 443.088 367 443z"/>
<path style="fill:#1b1617; stroke:none;" d="M386 443L387 444L386 443z"/>
<path style="fill:#dbdbdb; stroke:none;" d="M466 448C468.301 447.603 469.904 447.043 472 446L472 444L471 443C468.003 444.088 466.948 444.95 466 448z"/>
<path style="fill:#b9b9b9; stroke:none;" d="M205.333 444.667C205.278 444.722 205.222 445.778 205.667 445.333C205.722 445.278 205.778 444.222 205.333 444.667z"/>
<path style="fill:#a7a7a7; stroke:none;" d="M321.333 444.667C321.278 444.722 321.222 445.778 321.667 445.333C321.722 445.278 321.778 444.222 321.333 444.667z"/>
<path style="fill:#7f7f7f; stroke:none;" d="M362 445C364.079 446.643 364.581 446.183 366 444L362 445z"/>
<path style="fill:#d4d4d4; stroke:none;" d="M341 445L342 446L341 445z"/>
<path style="fill:#dddddd; stroke:none;" d="M374 461C377.42 460.592 380.854 460.155 384.285 459.877C391.502 459.293 397.378 450.026 388.695 445.957C384.128 443.816 380.209 448.754 376 449.697C373.381 450.284 369.709 450.354 367.17 449.412C364.268 448.335 362.392 445.584 358.997 445.952C355.798 446.299 350.86 449.968 352.407 453.687C355.681 461.558 370.033 455.501 374 461z"/>
<path style="fill:#010101; stroke:none;" d="M361 445L362 446L361 445z"/>
<path style="fill:#e5e5e5; stroke:none;" d="M293.667 446.333C293.222 446.778 294.278 446.722 294.333 446.667C294.778 446.222 293.722 446.278 293.667 446.333z"/>
<path style="fill:#a2a2a2; stroke:none;" d="M297.667 446.333C297.222 446.778 298.278 446.722 298.333 446.667C298.778 446.222 297.722 446.278 297.667 446.333z"/>
<path style="fill:#e5e5e5; stroke:none;" d="M299 446C300.248 446.685 300.548 446.749 302 447C300.752 446.315 300.452 446.251 299 446z"/>
<path style="fill:#d2d2d2; stroke:none;" d="M314 446L315 447L314 446z"/>
<path style="fill:#bdbdbd; stroke:none;" d="M364 447L365 450C370.221 449.34 378.227 450.907 381 446C375.291 447.06 369.502 445.808 364 447z"/>
<path style="fill:#7d7d7d; stroke:none;" d="M303 447C306.432 448.44 310.3 448 314 448C310.568 446.56 306.7 447 303 447z"/>
<path style="fill:#dddddd; stroke:none;" d="M107.001 448.533C100.48 450.129 97.1674 458.305 105.019 461.067C110.675 463.057 118.373 458.912 124 457.924C126.654 457.457 130.262 457.624 132.681 456.401C137.908 453.759 131.798 449.947 128.995 449.16C122.614 447.367 113.476 446.949 107.001 448.533z"/>
<path style="fill:#c7c7c7; stroke:none;" d="M287 449L288 450L287 449z"/>
<path style="fill:#cfcfcf; stroke:none;" d="M368 449C370.89 450.213 373.874 449.998 377 450C374.11 448.787 371.126 449.002 368 449z"/>
<path style="fill:#d1d1d1; stroke:none;" d="M286 450L287 451L286 450z"/>
<path style="fill:#d3d3d3; stroke:none;" d="M285 451L286 452L285 451z"/>
<path style="fill:#e2e2e2; stroke:none;" d="M259.333 452.667C259.278 452.722 259.222 453.778 259.667 453.333C259.722 453.278 259.778 452.222 259.333 452.667z"/>
<path style="fill:#b9b9b9; stroke:none;" d="M332 452L333 453L332 452z"/>
<path style="fill:#dcdcdc; stroke:none;" d="M173 461C172.72 459.615 172.633 458.237 171.822 457.015C166.632 449.193 160.828 459.028 168.999 461.249C170.332 461.612 171.695 461.193 173 461z"/>
<path style="fill:#bfbfbf; stroke:none;" d="M242.333 453.667C242.278 453.722 242.222 454.778 242.667 454.333C242.722 454.278 242.778 453.222 242.333 453.667z"/>
<path style="fill:#cdcdcd; stroke:none;" d="M284 453L285 454L284 453z"/>
<path style="fill:#040404; stroke:none;" d="M351 453L352 454L351 453z"/>
<path style="fill:#d3d3d3; stroke:none;" d="M258 454L259 455L258 454z"/>
<path style="fill:#8b8b8b; stroke:none;" d="M351 454C350.219 457.592 349.873 461.694 352.564 464.682C356.924 469.524 367.974 466.965 371 462C367.551 462.026 363.356 462.951 360.09 461.632C356.482 460.174 353.995 456.366 351 454z"/>
<path style="fill:#b6b6b6; stroke:none;" d="M251 455L252 456L251 455z"/>
<path style="fill:#d8d6d7; stroke:none;" d="M283 455L283 460L277 460C279.483 461.625 281.866 462.882 284 465C284.562 463.199 284.824 461.878 285 460L290 460L283 455z"/>
<path style="fill:#bcbabb; stroke:none;" d="M354 456C357.977 464.1 366.765 463.487 374 460C370.759 458.558 367.464 458.905 364 458.391C360.572 457.883 357.456 456.423 354 456z"/>
<path style="fill:#d4d4d4; stroke:none;" d="M319 457L320 458L319 457z"/>
<path style="fill:#a1a1a1; stroke:none;" d="M371 458C372.248 458.685 372.548 458.749 374 459C372.752 458.315 372.452 458.251 371 458z"/>
<path style="fill:#dadada; stroke:none;" d="M350 460L350 463C350.696 461.446 350.696 461.554 350 460z"/>
<path style="fill:#7a7a7a; stroke:none;" d="M371 464C373.357 462.906 374.599 462.165 376 460C373.024 460.551 371.8 461.016 371 464z"/>
<path style="fill:#3f3f3f; stroke:none;" d="M377.667 460.333C377.222 460.778 378.278 460.722 378.333 460.667C378.778 460.222 377.722 460.278 377.667 460.333z"/>
<path style="fill:#e3e3e3; stroke:none;" d="M271.333 461.667C271.278 461.722 271.222 462.778 271.667 462.333C271.722 462.278 271.778 461.222 271.333 461.667z"/>
<path style="fill:#b9b9b9; stroke:none;" d="M273.333 461.667C273.278 461.722 273.222 462.778 273.667 462.333C273.722 462.278 273.778 461.222 273.333 461.667z"/>
<path style="fill:#d4d4d4; stroke:none;" d="M274.667 461.333C274.222 461.778 275.278 461.722 275.333 461.667C275.778 461.222 274.722 461.278 274.667 461.333z"/>
<path style="fill:#8b8b8b; stroke:none;" d="M272 462C274.696 467.285 281.008 468.306 283 462C279.119 461.314 275.849 461.87 272 462z"/>
<path style="fill:#dfdfdf; stroke:none;" d="M294.667 461.333C294.222 461.778 295.278 461.722 295.333 461.667C295.778 461.222 294.722 461.278 294.667 461.333M178 465C180.297 464.326 180.774 464.035 182 462C179.261 462.211 178.578 462.303 178 465z"/>
<path style="fill:#cacaca; stroke:none;" d="M297 462L298 463L297 462z"/>
<path style="fill:#e3e3e3; stroke:none;" d="M272 464C272.545 465.635 272.365 465.455 274 466L274 464L272 464z"/>
<path style="fill:#d0d0d0; stroke:none;" d="M282 465L283 466L282 465z"/>
<path style="fill:#cacaca; stroke:none;" d="M302 465L303 466L302 465z"/>
<path style="fill:#cbcbcb; stroke:none;" d="M352 465L353 466L352 465z"/>
<path style="fill:#e3e3e3; stroke:none;" d="M280.667 466.333C280.222 466.778 281.278 466.722 281.333 466.667C281.778 466.222 280.722 466.278 280.667 466.333z"/>
<path style="fill:#c6c6c6; stroke:none;" d="M353 466L354 467L353 466z"/>
<path style="fill:#dedede; stroke:none;" d="M277.667 467.333C277.222 467.778 278.278 467.722 278.333 467.667C278.778 467.222 277.722 467.278 277.667 467.333z"/>
<path style="fill:#d1d1d1; stroke:none;" d="M355.667 467.333C355.222 467.778 356.278 467.722 356.333 467.667C356.778 467.222 355.722 467.278 355.667 467.333z"/>
<path style="fill:#b1b1b1; stroke:none;" d="M357.667 467.333C357.222 467.778 358.278 467.722 358.333 467.667C358.778 467.222 357.722 467.278 357.667 467.333z"/>
<path style="fill:#d1d1d1; stroke:none;" d="M309 468L310 469L309 468z"/>
<path style="fill:#d7d7d7; stroke:none;" d="M315 470C316.506 470.683 317.315 470.826 319 471C317.494 470.317 316.685 470.174 315 470z"/>
<path style="fill:#d2d2d2; stroke:none;" d="M321.333 470.667C321.278 470.722 321.222 471.778 321.667 471.333C321.722 471.278 321.778 470.222 321.333 470.667z"/>
<path style="fill:#b0b0b0; stroke:none;" d="M322.333 471.667C322.278 471.722 322.222 472.778 322.667 472.333C322.722 472.278 322.778 471.222 322.333 471.667z"/>
<path style="fill:#d5d5d5; stroke:none;" d="M324 472C324.674 474.297 324.965 474.774 327 476C327 473.649 327.652 474.065 330 474C328.031 472.937 326.202 472.468 324 472z"/>
<path style="fill:#e3e3e3; stroke:none;" d="M339.667 473.333C339.222 473.778 340.278 473.722 340.333 473.667C340.778 473.222 339.722 473.278 339.667 473.333z"/>
<path style="fill:#d7d7d7; stroke:none;" d="M343 473L349 477L349 473L343 473z"/>
<path style="fill:#7e7e7e; stroke:none;" d="M326 474C330.724 475.982 336.91 475 342 475C337.276 473.018 331.09 474 326 474z"/>
<path style="fill:#8b8b8b; stroke:none;" d="M327 475C331.955 478.754 340.971 477 347 477L347 474L327 475z"/>
</svg>
